<svg width="24" height="24" viewBox="0 0 24 24" fill="none" xmlns="http://www.w3.org/2000/svg">
<path d="M12 0C5.38206 0 0 5.38205 0 12C0 18.6179 5.38206 24 12 24C18.6179 24 24 18.6179 24 12C24 5.38205 18.6179 0 12 0ZM12 1.6C17.7532 1.6 22.4 6.24676 22.4 12C22.4 17.7532 17.7532 22.4 12 22.4C6.24676 22.4 1.6 17.7532 1.6 12C1.6 6.24676 6.24676 1.6 12 1.6ZM17.8417 6.925C17.6327 6.93325 17.4353 7.02299 17.2917 7.175L9.59167 15.125L6.7 12.2333C6.62806 12.1509 6.54 12.0842 6.44125 12.0372C6.34249 11.9902 6.23515 11.9639 6.12585 11.96C6.01655 11.9561 5.90761 11.9747 5.80576 12.0145C5.70391 12.0544 5.61131 12.1147 5.53369 12.1917C5.45607 12.2688 5.39506 12.3609 5.35445 12.4625C5.31384 12.5641 5.29449 12.6729 5.29758 12.7822C5.30067 12.8915 5.32614 12.999 5.37242 13.0981C5.41871 13.1972 5.48482 13.2858 5.56667 13.3583L9.03333 16.825C9.10836 16.9003 9.19763 16.9599 9.29594 17.0003C9.39425 17.0407 9.49963 17.0611 9.60591 17.0603C9.7122 17.0595 9.81727 17.0376 9.91498 16.9958C10.0127 16.9539 10.1011 16.893 10.175 16.8167L18.4417 8.28333C18.5532 8.169 18.628 8.02391 18.6563 7.86672C18.6847 7.70953 18.6654 7.54745 18.6009 7.40134C18.5363 7.25523 18.4295 7.13178 18.2942 7.04689C18.1589 6.962 18.0013 6.91955 17.8417 6.925V6.925Z" fill="#42BE65"/>
</svg>
