<svg width="296" height="60" viewBox="0 0 296 60" fill="none" xmlns="http://www.w3.org/2000/svg">
<path d="M4.08136 17.5592C2.81892 16.4862 2.66537 14.5929 3.73841 13.3305C4.81144 12.068 6.70472 11.9145 7.96716 12.9875L4.08136 17.5592ZM291.752 20.9189C293.275 20.2661 295.039 20.9713 295.692 22.4941C296.345 24.017 295.639 25.7807 294.116 26.4335L291.752 20.9189ZM25.2502 53.2006C26.0499 54.6517 25.5218 56.4763 24.0707 57.2759C22.6195 58.0756 20.7949 57.5475 19.9953 56.0964L25.2502 53.2006ZM3.65724 14.1573L1.23515 12.3871L1.23544 12.3868L3.65724 14.1573ZM39.3333 0.408126C40.9793 0.219238 42.4668 1.4005 42.6557 3.04655C42.8446 4.69261 41.6633 6.18012 40.0173 6.369L39.3333 0.408126ZM6.02426 15.2734C7.96716 12.9875 7.96607 12.9866 7.96537 12.986C7.96565 12.9862 7.96534 12.986 7.96591 12.9864C7.96705 12.9874 7.96975 12.9897 7.974 12.9933C7.98252 13.0004 7.99727 13.0128 8.01824 13.0302C8.06018 13.0651 8.127 13.1204 8.21862 13.1949C8.40188 13.3441 8.68432 13.5707 9.0653 13.8671C9.82728 14.4598 10.9833 15.3314 12.528 16.4203C15.6175 18.598 20.2609 21.6439 26.416 25.0656C38.7265 31.9091 57.0783 40.2527 81.1403 46.165C129.218 57.9784 200.279 60.1332 291.752 20.9189L294.116 26.4335C201.443 66.1621 129.05 64.1156 79.7086 51.9917C55.0613 45.9355 36.2131 37.3766 23.5007 30.3097C17.1445 26.7762 12.3208 23.615 9.07115 21.3244C7.44624 20.179 6.21457 19.2511 5.38131 18.6029C4.96467 18.2788 4.64759 18.0246 4.43073 17.8481C4.32229 17.7598 4.23891 17.691 4.18066 17.6425C4.15153 17.6183 4.12869 17.5991 4.11213 17.5852C4.10386 17.5783 4.09715 17.5726 4.09203 17.5683C4.08946 17.5661 4.08679 17.5638 4.08551 17.5627C4.08324 17.5608 4.08136 17.5592 6.02426 15.2734ZM22.6228 54.6485C19.9953 56.0964 19.9952 56.0961 19.995 56.0958C19.9948 56.0954 19.9945 56.0949 19.9941 56.0943C19.9934 56.093 19.9924 56.0912 19.9911 56.0888C19.9884 56.0839 19.9845 56.0768 19.9794 56.0675C19.9691 56.0488 19.9539 56.0211 19.9339 55.9847C19.8939 55.912 19.8349 55.8045 19.7581 55.6644C19.6045 55.3842 19.38 54.9738 19.0951 54.4509C18.5255 53.4053 17.7145 51.9097 16.7474 50.1072C14.8143 46.504 12.2535 41.6665 9.75001 36.7416C7.25248 31.8286 4.78744 26.7808 3.06036 22.773C2.20209 20.7813 1.48996 18.964 1.05222 17.5139C0.836765 16.8002 0.652728 16.0629 0.575071 15.3827C0.536235 15.0425 0.512214 14.6206 0.562081 14.1719C0.608544 13.7538 0.74594 13.0565 1.23515 12.3871L6.07932 15.9275C6.44925 15.4213 6.51186 14.9562 6.52537 14.8346C6.54228 14.6824 6.52714 14.6214 6.53635 14.7021C6.55479 14.8637 6.62352 15.2079 6.79619 15.7799C7.13469 16.9012 7.74024 18.4718 8.57052 20.3985C10.2205 24.2275 12.6162 29.1394 15.0986 34.0227C17.575 38.8942 20.1135 43.6898 22.0346 47.2707C22.9947 49.0602 23.7995 50.5444 24.364 51.5805C24.6462 52.0986 24.8683 52.5045 25.0195 52.7805C25.0952 52.9184 25.1531 53.0239 25.192 53.0947C25.2114 53.1301 25.2261 53.1568 25.2359 53.1745C25.2408 53.1834 25.2444 53.19 25.2468 53.1944C25.248 53.1965 25.2489 53.1982 25.2495 53.1992C25.2498 53.1997 25.2499 53.2001 25.2501 53.2003C25.2502 53.2005 25.2502 53.2006 22.6228 54.6485ZM1.23544 12.3868C1.7184 11.7262 2.3748 11.2918 2.76771 11.0512C3.23992 10.7621 3.78589 10.4877 4.35253 10.23C5.49153 9.7122 6.94259 9.15987 8.55872 8.59882C11.8045 7.47203 15.9478 6.23077 20.1108 5.06949C24.2822 3.90582 28.516 2.81063 31.9597 1.9766C35.3108 1.16499 38.1313 0.546054 39.3333 0.408126L40.0173 6.369C39.2626 6.4556 36.8419 6.96763 33.372 7.80801C29.9946 8.62599 25.8275 9.70383 21.723 10.8488C17.6099 11.9962 13.6021 13.1993 10.5264 14.267C8.98184 14.8032 7.72958 15.2857 6.83577 15.692C6.38601 15.8965 6.0832 16.0565 5.90088 16.1682C5.63928 16.3284 5.83542 16.2611 6.07903 15.9279L1.23544 12.3868Z" fill="#F59E0B"/>
</svg>
