<svg id="Capa_1" enable-background="new 0 0 512 512" height="300" viewBox="0 0 512 512" width="300" xmlns="http://www.w3.org/2000/svg"><g><g><path d="m256 308.302c-141.387 0-244.036-140.866-223.072-177.994 43.926-77.79 127.365-130.308 223.072-130.308 95.642 0 179.032 52.446 222.981 130.147 21.021 37.165-81.594 178.155-222.981 178.155z" fill="#cbdffe"/><path d="m512 256c0 26.051-3.891 51.191-11.129 74.871-5.031 16.469-11.672 32.231-19.75 47.109-8.25 15.2-147.391 46.234-225.121 46.234s-216.871-31.034-225.109-46.234c-3.289-6.031-6.332-12.21-9.121-18.531-14-31.629-21.77-66.629-21.77-103.449 0-46.219 12.25-89.57 33.68-127 44.121 77.07 127.16 129 222.32 129s178.211-51.93 222.32-129c21.43 37.43 33.68 80.781 33.68 127z" fill="#76a9fc"/><path d="m481.262 377.699c-7.16 13.223-15.434 25.742-24.723 37.43-8.437 10.633-17.719 20.57-27.719 29.723-45.539 41.699-106.211 67.148-172.82 67.148-35.379 0-69.083-7.18-99.734-20.16 0 0-17.715-22.056-39.066-41.606-.634-.58-35.285-6.545-35.913-7.132-9.28-8.666-17.924-18.014-25.826-27.973-9.289-11.688-17.563-24.207-24.723-37.43z" fill="#5783e3"/></g><g><path d="m293.441 122.441c-4.153-.405-8.239-1.095-12.48-1.095-11.213 0-22.292 1.438-33.103 4.278.061-10.933 2.62-21.804 7.52-31.628l11.262-23.404h-83.354l-2.828 8.568c-14.065 42.548-7.678 90.938 17.063 128.05 2.514 3.771 4.52 7.751 6.257 11.813l51.183 26.724 38.479 1.325 98.675 3.4 26.114-24.062c-21.515-57.487-68.865-98.506-124.788-103.969z" fill="#ecbea6"/><path d="m203.064 70.591h-19.777l-2.828 8.568c-14.065 42.548-7.678 90.938 17.063 128.05 2.182 3.273 3.968 6.71 5.541 10.216v-146.834z" fill="#f6dbcb"/><path d="m418.231 226.41c-21.516-57.488-68.867-98.506-124.789-103.969v124.631l98.675 3.4z" fill="#de916b"/><path d="m322.351 221.835c-9.537-3.18-19.199-5.564-28.91-7.273-30.037-5.285-60.585-3.669-89.662 4.461 6.077 14.219 6.764 31.952 3.847 44.312-9.405 39.804-43.717 49.439-52.579 56.223-44.481 25.41-72.471 72.525-73.714 123.576 21.745 20.305 47.021 36.876 74.823 48.662v-45.118c0-13.187 3.778-26.229 10.64-37.441 28.288 38.855 69.886 61.561 114.165 61.561 4.212 0 8.355-.338 12.48-.737 76.754-7.439 137.285-82.558 137.285-173.989 0-24.565-5.119-49.951-12.496-69.662-31.546 7.232-64.566 5.856-95.879-4.575z" fill="#da5f2a"/><path d="m155.047 319.558c-44.481 25.41-72.471 72.525-73.714 123.576 21.745 20.305 47.021 36.876 74.823 48.662v-45.118c0-13.187 3.778-26.229 10.64-37.441 10.45 14.354 22.721 26.496 36.267 36.111v-168.526c-12.974 28.665-40.254 36.795-48.016 42.736z" fill="#e2835a"/><path d="m430.727 296.072c0-24.565-5.119-49.951-12.496-69.662-31.547 7.232-64.567 5.856-95.88-4.575-9.537-3.18-19.199-5.564-28.91-7.273v255.499c76.754-7.439 137.286-82.558 137.286-173.989z" fill="#b03737"/><g><path d="m343.363 345.994c-20.646 0-37.441-16.795-37.441-37.441s16.795-37.441 37.441-37.441 37.441 16.795 37.441 37.441h-24.961c0-6.886-5.594-12.48-12.48-12.48s-12.48 5.594-12.48 12.48 5.594 12.48 12.48 12.48z" fill="#da5f2a"/></g><g><path d="m243.519 395.916c-20.646 0-37.441-16.795-37.441-37.441h24.961c0 6.886 5.594 12.48 12.48 12.48s12.481-5.595 12.481-12.481-5.594-12.48-12.481-12.48v-24.961c20.646 0 37.441 16.795 37.441 37.441.001 20.647-16.794 37.442-37.441 37.442z" fill="#e2835a"/></g><g><path d="m305.922 370.955h24.961v24.961h-24.961z" fill="#da5f2a"/></g><g><path d="m256 271.111h24.961v24.961h-24.961z" fill="#e2835a"/></g></g><g fill="#fff"><path d="m119.72 136.004h-1.524c-6.754 0-12.226-5.477-12.226-12.227v-1.523h-8.715v1.523c0 6.75-5.477 12.227-12.227 12.227h-1.527v8.715h1.527c6.75 0 12.227 5.472 12.227 12.226v1.528h8.715v-1.528c0-6.754 5.472-12.226 12.226-12.226h1.524z"/><path d="m141.31 229.919h-1.524c-6.754 0-12.226-5.477-12.226-12.227v-1.523h-8.715v1.523c0 6.75-5.477 12.227-12.227 12.227h-1.527v8.715h1.527c6.75 0 12.227 5.472 12.227 12.226v1.528h8.715v-1.528c0-6.754 5.472-12.226 12.226-12.226h1.524z"/><path d="m83.018 304.403h-1.524c-6.754 0-12.226-5.477-12.226-12.227v-1.523h-8.715v1.523c0 6.75-5.477 12.227-12.227 12.227h-1.527v8.715h1.527c6.75 0 12.227 5.472 12.227 12.226v1.528h8.715v-1.528c0-6.754 5.472-12.226 12.226-12.226h1.524z"/><path d="m359.365 71.235h-1.524c-6.754 0-12.226-5.477-12.226-12.227v-1.523h-8.715v1.523c0 6.75-5.477 12.227-12.227 12.227h-1.527v8.715h1.527c6.75 0 12.227 5.472 12.227 12.226v1.528h8.715v-1.528c0-6.754 5.472-12.226 12.226-12.226h1.524z"/></g></g></svg>