<svg id="Layer_1" enable-background="new 0 0 512 512" height="300" viewBox="0 0 512 512" width="300" xmlns="http://www.w3.org/2000/svg"><path d="m401.569 268.303c5.858-5.858 5.858-15.355 0-21.213l-85.56-85.56c-9.373-9.373-24.569-9.373-33.941 0l-4.243 4.243 102.53 102.531c5.859 5.856 15.356 5.856 21.214-.001z" fill="#ebad88"/><path d="m320.252 208.198 21.213-21.213-25.456-25.456c-9.373-9.373-24.569-9.373-33.941 0l-4.243 4.243z" fill="#4362a0"/><path d="m110.431 268.303c-5.858-5.858-5.858-15.355 0-21.213l85.56-85.56c9.373-9.373 24.569-9.373 33.941 0l4.243 4.243-102.53 102.531c-5.859 5.856-15.356 5.856-21.214-.001z" fill="#ebad88"/><path d="m191.748 208.198-21.213-21.213 25.456-25.456c9.373-9.373 24.569-9.373 33.941 0l4.243 4.243z" fill="#4362a0"/><path d="m211 154.5h90v120.5h-90z" fill="#f75632"/><path d="m271 154.5h30v120.5h-30z" fill="#e33629"/><path d="m301 264.5v180h-30v-135c0-8.284-6.716-15-15-15-8.284 0-15 6.716-15 15v135h-30v-180z" fill="#4362a0"/><g><path d="m271 264.5h30v180h-30z" fill="#3e5a94"/></g><path d="m241 444.5h-30v-17c0-8.284 6.716-15 15-15 8.284 0 15 6.716 15 15z" fill="#be652b"/><path d="m301 444.5h-30v-17c0-8.284 6.716-15 15-15 8.284 0 15 6.716 15 15z" fill="#be652b"/><path d="m256 174.5c-8.284 0-15-6.716-15-15v-35h30v35c0 8.284-6.716 15-15 15z" fill="#e8916f"/><path d="m256 143.5c-16.569 0-30-13.431-30-30v-16c0-16.569 13.431-30 30-30 16.569 0 30 13.431 30 30v16c0 16.569-13.431 30-30 30z" fill="#ebad88"/><path d="m256 67.5c-16.569 0-30 13.431-30 30v.96c7.757 4.735 18.333 7.655 30 7.655s22.243-2.92 30-7.655v-.96c0-16.569-13.431-30-30-30z" fill="#be652b"/><g fill="#ffd54f"><path d="m98.781 142.928c.833-4.059-1.781-8.024-5.839-8.857-4.054-.833-8.022 1.782-8.854 5.841-1.032 5.026-1.852 10.166-2.437 15.275-.472 4.117 2.482 7.837 6.597 8.308.291.033.579.05.864.05 3.76 0 7.003-2.823 7.442-6.649.534-4.673 1.284-9.372 2.227-13.968z"/><path d="m95.5 230.081c0-4.144-3.358-7.502-7.5-7.502s-7.5 3.359-7.5 7.502v14.819c0 4.144 3.358 7.502 7.5 7.502s7.5-3.359 7.5-7.502z"/><path d="m88 311.487c-4.142 0-7.5 3.359-7.5 7.502v14.818c0 4.144 3.358 7.502 7.5 7.502s7.5-3.358 7.5-7.502v-14.818c0-4.144-3.358-7.502-7.5-7.502z"/><path d="m95.5 185.628c0-4.144-3.358-7.502-7.5-7.502s-7.5 3.359-7.5 7.502v14.817c0 4.144 3.358 7.502 7.5 7.502s7.5-3.359 7.5-7.502z"/><path d="m109.737 402.653c-1.709-3.774-6.153-5.447-9.927-3.737-3.772 1.711-5.445 6.156-3.735 9.93 2.119 4.678 4.475 9.318 7 13.793 1.379 2.443 3.92 3.815 6.538 3.815 1.249 0 2.516-.313 3.681-.971 3.607-2.037 4.879-6.613 2.843-10.221-2.309-4.092-4.462-8.333-6.4-12.609z"/><path d="m132.143 438.56c-2.636-3.195-7.363-3.65-10.558-1.012s-3.647 7.367-1.011 10.562c3.268 3.962 6.752 7.827 10.355 11.487 1.468 1.492 3.405 2.239 5.345 2.239 1.899 0 3.801-.718 5.262-2.156 2.951-2.907 2.988-7.658.082-10.61-3.297-3.348-6.485-6.885-9.475-10.51z"/><path d="m127.667 78.953c2.824-3.755 5.851-7.431 8.995-10.925 2.771-3.08 2.521-7.824-.558-10.595-3.079-2.772-7.821-2.523-10.592.557-3.437 3.821-6.745 7.838-9.832 11.943-2.49 3.311-1.826 8.014 1.484 10.505 1.351 1.017 2.933 1.507 4.503 1.507 2.277 0 4.526-1.032 6-2.992z"/><path d="m431.5 244.527c0-4.144-3.358-7.502-7.5-7.502s-7.5 3.359-7.5 7.502v14.817c0 4.144 3.358 7.502 7.5 7.502s7.5-3.359 7.5-7.502z"/><path d="m157.338 48.745c3.706-2.894 7.583-5.655 11.521-8.207 3.477-2.253 4.47-6.898 2.218-10.375-2.251-3.477-6.895-4.471-10.372-2.218-4.307 2.79-8.544 5.809-12.597 8.973-3.265 2.549-3.846 7.264-1.297 10.53 1.479 1.896 3.687 2.887 5.917 2.887 1.614-.001 3.24-.52 4.61-1.59z"/><path d="m423.925 177.94c.073 0 .146-.001.22-.003 4.14-.119 7.4-3.574 7.281-7.715-.148-5.143-.525-10.332-1.121-15.424-.48-4.116-4.2-7.053-8.32-6.58-4.114.482-7.059 4.207-6.578 8.323.544 4.659.89 9.406 1.025 14.113.117 4.069 3.451 7.286 7.493 7.286z"/><path d="m431.5 288.979c0-4.144-3.358-7.502-7.5-7.502s-7.5 3.359-7.5 7.502v14.818c0 4.144 3.358 7.502 7.5 7.502s7.5-3.358 7.5-7.502z"/><path d="m423.074 355.721c.176.012.352.018.526.018 3.906 0 7.2-3.026 7.474-6.984.282-4.071.425-8.213.425-12.312v-3.01c0-4.144-3.358-7.502-7.5-7.502s-7.5 3.359-7.5 7.502v3.01c0 3.754-.131 7.547-.389 11.274-.286 4.133 2.832 7.717 6.964 8.004z"/><path d="m95.5 274.535c0-4.144-3.358-7.502-7.5-7.502s-7.5 3.358-7.5 7.502v14.818c0 4.144 3.358 7.502 7.5 7.502s7.5-3.359 7.5-7.502z"/><path d="m431.5 200.073c0-4.144-3.358-7.502-7.5-7.502s-7.5 3.359-7.5 7.502v14.817c0 4.144 3.358 7.502 7.5 7.502s7.5-3.359 7.5-7.502z"/><path d="m97.149 120.032c.913.364 1.854.537 2.78.537 2.978 0 5.795-1.786 6.967-4.721 1.743-4.363 3.703-8.701 5.826-12.892 1.872-3.696.394-8.211-3.301-10.083-3.694-1.875-8.208-.395-10.08 3.302-2.323 4.585-4.467 9.332-6.375 14.107-1.535 3.847.337 8.212 4.183 9.75z"/><path d="m404.975 115.53c1.751 4.357 3.328 8.846 4.687 13.343.979 3.242 3.956 5.334 7.176 5.334.719 0 1.45-.105 2.173-.322 3.965-1.2 6.208-5.387 5.009-9.353-1.487-4.921-3.212-9.833-5.128-14.599-1.546-3.844-5.913-5.706-9.757-4.162-3.843 1.545-5.705 5.915-4.16 9.759z"/><path d="m100.401 375.981c-1.151-4.547-2.113-9.207-2.859-13.85-.657-4.091-4.504-6.873-8.595-6.217-4.09.658-6.872 4.507-6.214 8.598.816 5.079 1.869 10.177 3.128 15.151.86 3.4 3.913 5.663 7.265 5.663.609 0 1.229-.075 1.847-.232 4.014-1.015 6.445-5.097 5.428-9.113z"/><path d="m292.547 18.827c3.439 0 6.539-2.382 7.315-5.88.896-4.045-1.654-8.051-5.698-8.949-5.01-1.112-10.135-2.012-15.232-2.678-4.105-.529-7.872 2.36-8.408 6.468-.536 4.109 2.359 7.874 6.466 8.41 4.661.609 9.346 1.433 13.926 2.449.547.122 1.093.18 1.631.18z"/><path d="m334.137 34.089c2.695 0 5.3-1.458 6.643-4.01 1.929-3.666.522-8.203-3.143-10.133-4.55-2.396-9.26-4.616-13.998-6.597-3.82-1.598-8.214.206-9.813 4.029-1.597 3.823.206 8.218 4.027 9.816 4.331 1.811 8.637 3.84 12.796 6.03 1.116.587 2.31.865 3.488.865z"/><path d="m337.28 474.917c-4.047 2.383-8.249 4.613-12.489 6.628-3.741 1.779-5.333 6.254-3.556 9.996 1.284 2.703 3.974 4.285 6.779 4.285 1.079 0 2.175-.234 3.214-.728 4.638-2.205 9.234-4.644 13.66-7.249 3.57-2.102 4.76-6.7 2.659-10.272-2.1-3.571-6.696-4.761-10.267-2.66z"/><path d="m298.301 491.362c-4.527 1.234-9.167 2.28-13.791 3.108-4.078.731-6.791 4.629-6.06 8.708.65 3.631 3.811 6.181 7.374 6.181.439 0 .884-.038 1.331-.118 5.06-.907 10.137-2.051 15.09-3.401 3.997-1.089 6.354-5.214 5.265-9.211-1.09-3.999-5.212-6.358-9.209-5.267z"/><path d="m370.288 59.719c2.013 0 4.02-.806 5.498-2.397 2.819-3.036 2.643-7.783-.392-10.602-3.762-3.496-7.727-6.867-11.783-10.021-3.271-2.542-7.982-1.952-10.524 1.32s-1.951 7.985 1.319 10.528c3.711 2.885 7.338 5.97 10.781 9.167 1.443 1.342 3.274 2.005 5.101 2.005z"/><path d="m406.245 412.091c-3.612-2.03-8.184-.746-10.212 2.867-2.299 4.095-4.811 8.139-7.465 12.02-2.339 3.42-1.463 8.09 1.955 10.429 1.295.886 2.769 1.311 4.228 1.311 2.393 0 4.744-1.143 6.197-3.267 2.902-4.245 5.649-8.667 8.164-13.145 2.027-3.613.744-8.186-2.867-10.215z"/><path d="m398.526 93.871c1.358 0 2.734-.369 3.971-1.143 3.512-2.198 4.577-6.827 2.38-10.34-2.722-4.351-5.672-8.637-8.771-12.739-2.498-3.305-7.201-3.96-10.505-1.462-3.305 2.498-3.959 7.203-1.462 10.508 2.834 3.752 5.534 7.672 8.023 11.652 1.422 2.276 3.865 3.524 6.364 3.524z"/><path d="m370.621 448.827c-3.291 3.358-6.769 6.609-10.338 9.663-3.147 2.694-3.516 7.43-.823 10.579 1.483 1.734 3.586 2.625 5.702 2.625 1.725 0 3.459-.592 4.873-1.801 3.9-3.339 7.701-6.892 11.297-10.56 2.9-2.959 2.853-7.709-.105-10.61-2.956-2.901-7.706-2.853-10.606.104z"/><path d="m421.811 394.11c1.687-4.856 3.176-9.845 4.425-14.828 1.007-4.019-1.433-8.093-5.45-9.102-4.02-1.015-8.092 1.433-9.099 5.452-1.142 4.554-2.503 9.114-4.045 13.552-1.359 3.914.71 8.189 4.623 9.549.815.284 1.646.418 2.462.418 3.104.001 6.007-1.942 7.084-5.041z"/><path d="m214.044 491.456c-4.535-1.226-9.067-2.669-13.472-4.29-3.89-1.432-8.199.562-9.628 4.451-1.43 3.889.562 8.201 4.449 9.632 4.819 1.773 9.779 3.353 14.74 4.693.655.177 1.313.262 1.96.262 3.306 0 6.333-2.203 7.236-5.548 1.08-4.001-1.286-8.119-5.285-9.2z"/><path d="m248.742 15c4.138-.184 7.343-3.69 7.159-7.829-.185-4.14-3.693-7.381-7.827-7.161-5.14.229-10.32.687-15.397 1.362-4.106.545-6.993 4.318-6.447 8.425.5 3.773 3.722 6.516 7.425 6.516.329 0 .662-.021.997-.066 4.645-.618 9.386-1.037 14.09-1.247z"/><path d="m256.372 496.994-.372.001c-4.712 0-9.469-.206-14.137-.613-4.119-.368-7.764 2.694-8.123 6.823-.36 4.128 2.694 7.766 6.82 8.126 5.1.444 10.294.67 15.499.67l.313-.001c4.142 0 7.5-3.359 7.5-7.502s-3.358-7.504-7.5-7.504z"/><path d="m193.83 27.325c4.329-1.821 8.79-3.468 13.257-4.896 3.945-1.262 6.122-5.484 4.861-9.431s-5.48-6.12-9.427-4.863c-4.888 1.563-9.768 3.365-14.504 5.357-3.818 1.606-5.612 6.005-4.007 9.824 1.206 2.87 3.988 4.596 6.917 4.596.968.001 1.953-.188 2.903-.587z"/><path d="m175.02 475.093c-4.054-2.375-8.052-4.96-11.881-7.682-3.376-2.402-8.059-1.608-10.458 1.769-2.4 3.378-1.608 8.061 1.769 10.461 4.188 2.977 8.558 5.803 12.991 8.399 1.191.698 2.496 1.03 3.783 1.03 2.575 0 5.083-1.329 6.479-3.712 2.091-3.576.891-8.172-2.683-10.265z"/><path d="m504.5 248.414h-36.893l6.197-6.198c2.929-2.931 2.929-7.68 0-10.611-2.929-2.929-7.678-2.929-10.606 0l-19 19.006c-2.929 2.931-2.929 7.68 0 10.611l19 19.006c1.464 1.464 3.384 2.197 5.303 2.197s3.839-.733 5.303-2.197c2.929-2.931 2.929-7.68 0-10.611l-6.197-6.198h36.893c4.142 0 7.5-3.358 7.5-7.502s-3.358-7.503-7.5-7.503z"/><path d="m444.604 455.786h8.763c4.142 0 7.5-3.358 7.5-7.502s-3.358-7.502-7.5-7.502h-26.87c-4.142 0-7.5 3.359-7.5 7.502v26.879c0 4.144 3.358 7.502 7.5 7.502s7.5-3.359 7.5-7.502v-8.766l26.087 26.096c1.464 1.464 3.384 2.197 5.303 2.197s3.839-.733 5.303-2.197c2.929-2.931 2.929-7.68 0-10.611z"/><path d="m426.497 71.052h26.87c4.142 0 7.5-3.359 7.5-7.502s-3.358-7.502-7.5-7.502h-8.763l26.087-26.095c2.929-2.931 2.929-7.68 0-10.611-2.929-2.929-7.678-2.929-10.606 0l-26.087 26.096v-8.766c0-4.144-3.358-7.502-7.5-7.502s-7.5 3.359-7.5 7.502v26.878c-.001 4.144 3.357 7.502 7.499 7.502z"/><path d="m48.803 280.229 19-19.006c2.929-2.931 2.929-7.68 0-10.611l-19-19.006c-2.929-2.929-7.678-2.929-10.606 0-2.929 2.931-2.929 7.68 0 10.611l6.197 6.198h-36.894c-4.142 0-7.5 3.359-7.5 7.502 0 4.144 3.358 7.502 7.5 7.502h36.893l-6.197 6.198c-2.929 2.931-2.929 7.68 0 10.611 1.464 1.464 3.384 2.197 5.303 2.197s3.84-.732 5.304-2.196z"/><path d="m85.503 440.782h-26.87c-4.142 0-7.5 3.359-7.5 7.502s3.358 7.502 7.5 7.502h8.763l-26.087 26.095c-2.929 2.931-2.929 7.68 0 10.611 1.464 1.464 3.384 2.197 5.303 2.197s3.839-.733 5.303-2.197l26.087-26.096v8.766c0 4.144 3.358 7.502 7.5 7.502s7.5-3.359 7.5-7.502v-26.879c.001-4.143-3.357-7.501-7.499-7.501z"/><path d="m67.396 56.047h-8.763c-4.142 0-7.5 3.359-7.5 7.502s3.358 7.502 7.5 7.502h26.87c4.142 0 7.5-3.359 7.5-7.502v-26.878c0-4.144-3.358-7.502-7.5-7.502s-7.5 3.359-7.5 7.502v8.766l-26.087-26.096c-2.929-2.929-7.678-2.929-10.606 0-2.929 2.931-2.929 7.68 0 10.611z"/></g></svg>