<svg width="51" height="50" viewBox="0 0 51 50" fill="none" xmlns="http://www.w3.org/2000/svg">
<path d="M1.53809 25C1.53809 11.7452 12.2833 1 25.5381 1V1C38.7929 1 49.5381 11.7452 49.5381 25V25C49.5381 38.2548 38.7929 49 25.5381 49V49C12.2833 49 1.53809 38.2548 1.53809 25V25Z" fill="#FFDF70"/>
<path d="M35.5381 25C35.5381 30.5228 31.0609 35 25.5381 35M35.5381 25C35.5381 19.4772 31.0609 15 25.5381 15M35.5381 25H15.5381M25.5381 35C20.0152 35 15.5381 30.5228 15.5381 25M25.5381 35C28.0394 32.2616 29.4608 28.708 29.5381 25C29.4608 21.292 28.0394 17.7384 25.5381 15M25.5381 35C23.0368 32.2616 21.6153 28.708 21.5381 25C21.6153 21.292 23.0368 17.7384 25.5381 15M15.5381 25C15.5381 19.4772 20.0152 15 25.5381 15" stroke="#3F3F3F" stroke-width="2" stroke-linecap="round" stroke-linejoin="round"/>
<path d="M25.5381 48C12.8355 48 2.53809 37.7025 2.53809 25H0.538086C0.538086 38.8071 11.731 50 25.5381 50V48ZM48.5381 25C48.5381 37.7025 38.2406 48 25.5381 48V50C39.3452 50 50.5381 38.8071 50.5381 25H48.5381ZM25.5381 2C38.2406 2 48.5381 12.2975 48.5381 25H50.5381C50.5381 11.1929 39.3452 0 25.5381 0V2ZM25.5381 0C11.731 0 0.538086 11.1929 0.538086 25H2.53809C2.53809 12.2975 12.8355 2 25.5381 2V0Z" fill="#D9A900" fill-opacity="0.24"/>
</svg>
