<svg width="181" height="50" viewBox="0 0 181 50" fill="none" xmlns="http://www.w3.org/2000/svg">
<g clip-path="url(#clip0_304_36897)">
<ellipse cx="23.9315" cy="33.6547" rx="23.9315" ry="23.9167" fill="#FFE299"/>
<path d="M10.5691 23.1718C10.1001 22.1457 9.71391 21.0756 9.14307 20.103C8.09583 18.3275 6.94778 16.6107 5.82096 14.8823C5.59602 14.5365 5.37108 14.222 5.68621 13.8479C6.02256 13.4485 6.39817 13.6047 6.77802 13.8185C9.59826 15.3991 11.9177 17.5592 14.0514 19.9332C14.2159 20.1156 14.3782 20.299 14.5957 20.5432C14.6178 20.3953 14.6305 20.2462 14.6339 20.0967C14.3984 15.9678 14.1597 11.839 13.9177 7.71014C13.8912 7.27937 13.9644 6.92092 14.4355 6.81611C14.9066 6.7113 15.1135 7.02573 15.2844 7.41982C16.791 10.9366 18.3051 14.4498 19.8267 17.9596C19.8787 18.0791 19.9497 18.1912 20.0718 18.4208C20.4336 16.704 20.8145 15.1119 21.101 13.5041C21.8066 9.57158 22.4602 5.6307 23.1742 1.70029C23.2199 1.44979 23.6103 1.25904 23.8406 1.04103C24.0613 1.26952 24.4316 1.47076 24.4772 1.73069C25.5043 7.16408 26.4932 12.6038 27.4948 18.0424C27.5107 18.1262 27.5436 18.2059 27.6062 18.4082C27.7951 18.0141 27.9489 17.7175 28.0815 17.4125C29.5062 14.1081 30.9273 10.8014 32.3448 7.49214C32.5241 7.07289 32.6981 6.68719 33.2403 6.82554C33.7825 6.96389 33.7401 7.40514 33.7104 7.84535C33.4274 12.0378 33.1498 16.2337 32.8774 20.4331L33.0727 20.5023C33.1915 20.3755 33.3135 20.2508 33.4292 20.1208C35.5916 17.6745 37.9588 15.463 40.8395 13.8458C41.0591 13.7231 41.3371 13.611 41.5822 13.6361C42.1361 13.6823 42.2825 14.2933 41.875 14.809C40.0251 17.1522 38.5168 19.74 37.3943 22.4969C37.3349 22.6425 37.2786 22.7893 37.2288 22.9381C37.2201 23.0179 37.2201 23.0984 37.2288 23.1781C37.3996 23.0733 37.5269 23.0062 37.6373 22.9192C40.3376 20.7947 43.4581 19.6607 46.8354 19.166C47.0922 19.1282 47.5028 19.3672 47.645 19.5967C47.7341 19.7414 47.5325 20.2529 47.333 20.3535C43.6735 22.196 41.6872 25.375 40.4522 29.0308C39.2797 32.499 38.4224 36.0709 37.3327 39.5684C36.7789 41.3502 36.1401 43.1173 35.3274 44.7912C33.4971 48.556 30.402 50.3168 26.1674 49.8588C24.6327 49.7031 23.086 49.701 21.5509 49.8525C17.0351 50.2591 14.061 48.4826 12.114 44.4359C10.7559 41.6217 10.029 38.6168 9.2322 35.6286C8.40883 32.5419 7.61518 29.4448 6.17217 26.5635C4.85542 23.9349 3.07181 21.7422 0.374652 20.365C0.162444 20.2602 -0.027482 19.8252 0.00328814 19.5705C0.0574011 19.1272 0.457413 19.0769 0.872279 19.1345C4.344 19.6271 7.08254 20.7916 10.5691 23.1718ZM9.4582 24.2744L9.36165 24.1854L9.35528 24.1717L9.05395 23.9621L9.03803 23.9537L8.94254 23.8678L8.93511 23.8468C7.8433 22.8983 6.65282 22.1216 5.20874 21.7936C5.0561 21.7069 4.89804 21.6299 4.73552 21.563C4.62603 21.5404 4.5138 21.5337 4.40235 21.5431C4.43492 21.6359 4.47724 21.7252 4.52862 21.8093C5.10052 22.5535 5.77958 23.2379 6.22628 24.047C7.08041 25.5772 7.93986 27.1295 8.54783 28.7635C9.30117 30.7916 9.8094 32.9088 10.41 34.9914C10.8068 36.3707 11.1739 37.7584 11.5654 39.1398C12.2318 41.4875 13.0212 43.7955 14.5777 45.7334C16.0982 47.6284 18.0728 48.6681 20.5917 48.492L21.2283 48.47L21.3344 48.5004H21.4087L21.2219 48.2059L21.0989 48.0917L20.9079 47.9764L20.9142 47.9827L20.7975 47.7867C20.7909 47.7775 20.7812 47.7708 20.7702 47.768C20.7591 47.7651 20.7474 47.7662 20.737 47.7709L20.5811 47.6661H20.5885C20.4665 47.4785 20.3529 47.2846 20.2214 47.1043C18.4632 44.6989 17.8871 41.8418 17.0754 39.0769C16.651 37.6431 16.2266 36.2107 15.8022 34.7796L15.7342 34.635C15.7419 34.6253 15.7461 34.6133 15.7461 34.6009C15.7461 34.5886 15.7419 34.5766 15.7342 34.5669C15.6844 34.396 15.6334 34.2252 15.5836 34.0543L15.4923 33.8353C15.2143 33.1023 14.9356 32.3686 14.6562 31.6343V31.6259C14.5515 31.389 14.4454 31.1518 14.3379 30.9142L14.3241 30.8891C14.1544 30.5397 13.9849 30.1903 13.8159 29.841L13.7098 29.6408V29.6303C13.6472 29.5255 13.5835 29.4207 13.5209 29.3158L13.505 29.3012L13.4106 29.1125L13.401 29.0936L13.2949 28.9039L13.2875 28.8914L13.1814 28.6912L13.088 28.5864V28.5748L12.9819 28.3799L12.9755 28.3673C12.9108 28.2625 12.8472 28.1577 12.7824 28.0529L12.7686 28.0403L12.5649 27.7374H12.5554L12.4493 27.5383C12.443 27.506 12.4288 27.4758 12.4079 27.4502L12.0132 26.9262L11.923 26.8098L11.8169 26.705V26.6987L11.7267 26.5939V26.5782C11.5866 26.4084 11.4455 26.2386 11.3023 26.0678H11.2927L11.1495 25.8812L11.1368 25.8676L10.9659 25.747L10.9543 25.7324L10.4237 25.1297H10.4142L10.3145 25.0249C10.3042 24.993 10.2855 24.9645 10.2603 24.9421L9.77439 24.5103L9.59083 24.3887L9.57385 24.3772L9.48154 24.2933L9.4582 24.2744ZM9.34467 17.489L9.43698 17.6001C9.44207 17.6312 9.4488 17.662 9.45714 17.6923C9.45974 17.7947 9.47652 17.8963 9.50701 17.9942C10.3442 19.8064 11.2047 21.6123 12.0259 23.4297C12.4906 24.4505 12.8567 25.5196 13.3692 26.5153C13.836 27.4219 14.5215 28.2206 14.9607 29.1356C15.5974 30.4646 16.1077 31.8607 16.6818 33.2169C16.7348 33.3427 16.8632 33.4381 16.9555 33.5471C17.0035 33.4236 17.0435 33.2972 17.0754 33.1687C17.1921 32.5573 17.3035 31.9452 17.4096 31.3324C17.5805 30.344 17.7449 29.3557 17.9126 28.3663C17.9454 28.2615 17.9783 28.1629 18.0123 28.0602C18.0462 27.9575 18.076 27.8506 18.1088 27.7458L18.0919 27.5718L18.0218 27.467C17.4181 26.5709 16.8759 25.6265 16.199 24.788C14.6912 22.9192 13.1156 21.1029 11.5675 19.2645L10.6126 18.426L10.5054 18.2384L10.3813 18.1252L10.1871 18.0099L9.1261 17.0771L9.09745 17.0488L9.13034 17.0729C9.17066 17.1777 9.21098 17.2762 9.25024 17.3779L9.34361 17.489H9.34467ZM37.4388 18.0078L37.2436 18.1252L37.1099 18.3118L36.7821 18.6136L36.676 18.7184L36.4638 18.928C36.414 18.9436 36.3671 18.967 36.3248 18.9972C33.7157 21.5274 31.566 24.4107 29.6551 27.4754C29.5776 27.599 29.6296 27.8013 29.6211 27.9669C29.6104 28.0715 29.6104 28.1768 29.6211 28.2814C29.8461 29.4399 30.0752 30.5966 30.3087 31.7517C30.4328 32.3658 30.5718 32.9758 30.7426 33.7651C30.9113 33.3364 30.992 33.0922 31.1013 32.8616C31.966 31.0442 32.8127 29.2184 33.7167 27.4198C34.0414 26.7731 34.6122 26.2386 34.8924 25.5783C35.6903 23.6917 36.3778 21.7579 37.1502 19.8609C37.4813 19.0475 37.9237 18.2793 38.3174 17.49C38.3359 17.4811 38.3551 17.4734 38.3747 17.467L38.4935 17.2741L37.8707 17.6011L37.7646 17.706L37.5524 17.9156L37.4388 18.0078ZM16.2351 13.4087L16.129 13.1991L15.7979 12.2684L15.6642 12.3071L15.8329 14.2262C15.8393 14.4505 15.8446 14.6759 15.851 14.9002C15.8471 14.9035 15.844 14.9076 15.8419 14.9122C15.8398 14.9168 15.8387 14.9218 15.8387 14.9269C15.8387 14.932 15.8398 14.9369 15.8419 14.9416C15.844 14.9462 15.8471 14.9503 15.851 14.9536L15.8287 15.4955C15.8913 17.7227 15.9507 19.95 16.0218 22.1761C16.0416 22.3125 16.0976 22.4412 16.1841 22.5493C16.8483 23.5107 17.5178 24.4687 18.1927 25.4232C18.2626 25.4996 18.3421 25.5669 18.4293 25.6234C18.5046 25.5378 18.5655 25.4408 18.6097 25.3362C18.7243 24.8638 18.8279 24.3887 18.9205 23.9108C19.0892 23.0282 19.2463 22.1436 19.4086 21.2611C19.6208 20.8136 19.5285 20.4143 19.3121 19.9772C18.806 18.9595 18.3677 17.9103 17.8839 16.8832C17.416 15.8917 16.929 14.9127 16.443 13.9275C16.3698 13.7535 16.2977 13.5796 16.2244 13.4035L16.2351 13.4087ZM19.6176 27.1389C19.5508 27.4534 19.4829 27.7626 19.416 28.0749C18.9916 30.2246 18.5534 32.3721 18.1672 34.527C18.0155 35.3729 17.7619 36.2931 17.9497 37.0886C18.4763 39.306 19.1188 41.4949 19.8744 43.6466C20.5227 45.4944 21.4501 47.2102 23.5467 47.8841L23.5361 47.9554L23.6581 47.8999L23.8788 47.8799C24.4581 47.6053 25.1043 47.4177 25.6019 47.0415C26.8677 46.0793 27.4269 44.6308 27.9595 43.2201C28.4296 41.9728 28.7935 40.6826 29.1458 39.3945C29.4142 38.4124 29.7824 37.4031 29.7601 36.4105C29.7283 35.0532 29.3951 33.698 29.1394 32.3512C28.7415 30.255 28.3129 28.165 27.8768 26.0761C27.2497 23.0691 26.6035 20.0652 25.9669 17.0624C25.4364 14.57 24.9207 12.0755 24.3913 9.58311C24.2385 8.86306 24.0623 8.14721 23.8968 7.42925C23.883 7.19657 23.8703 6.96284 23.8565 6.73016L23.744 6.71968C23.4505 8.3142 23.1576 9.91501 22.8655 11.5221C22.8528 11.5944 22.8411 11.6678 22.8294 11.7412L22.5875 13.0859V13.0953L21.1551 19.6974C21.1455 19.7665 21.1349 19.8357 21.1254 19.907C21.0469 20.2885 20.9687 20.6697 20.8909 21.0505C20.8785 21.0788 20.8748 21.1102 20.8803 21.1406C20.7275 21.76 20.5524 22.3742 20.424 22.9979C20.1439 24.3688 19.8871 25.7449 19.6208 27.119L19.6176 27.1389ZM28.1484 21.0347C28.1739 21.2381 28.1845 21.4446 28.2269 21.6447C28.4688 22.7977 28.7139 23.9506 28.9696 25.1035C29.0208 25.256 29.0881 25.4029 29.1702 25.5416C29.2986 25.4452 29.4598 25.3718 29.5511 25.2481C30.2015 24.3625 30.8509 23.4768 31.4684 22.5681C31.614 22.3371 31.6949 22.0719 31.7029 21.7999C31.757 20.2172 31.7899 18.6335 31.809 17.0509C31.8143 16.6757 31.758 16.3004 31.7305 15.9252L31.7443 15.4253C31.798 14.8921 31.8525 14.3586 31.9077 13.8248V12.151C31.6954 12.5975 31.5278 12.9161 31.3962 13.2483C31.1023 13.9894 30.8265 14.7367 30.5474 15.4808C30.4413 15.6118 30.3034 15.7282 30.2344 15.876C29.5596 17.3087 28.8848 18.7425 28.2418 20.19C28.1314 20.431 28.1739 20.7455 28.1463 21.0285L28.1484 21.0347ZM42.1201 21.89L40.6082 22.6048C40.0723 22.9287 39.51 23.218 39.0039 23.5837C36.3141 25.5212 34.2731 28.2097 33.1438 31.3031C31.9586 34.4851 31.0344 37.7636 30.0402 41.0138C29.3378 43.3133 28.6428 45.6076 27.1468 47.5624L26.2884 48.4155C26.4444 48.4795 26.6003 48.5958 26.7563 48.5958C27.1415 48.5958 27.5266 48.5455 27.9118 48.5151C30.1601 48.339 31.9066 47.293 33.2318 45.5196C34.4488 43.8887 35.2223 42.0504 35.7709 40.1156C36.6356 37.0645 37.4399 33.9967 38.3428 30.9561C39.1121 28.3642 40.1084 25.8539 41.6819 23.6194C42.2125 22.8606 42.8491 22.1678 43.5165 21.3439C42.9732 21.5211 42.5615 21.6584 42.1499 21.7946C42.1297 21.7936 42.1244 21.8502 42.118 21.8837L42.1201 21.89ZM37.2266 23.197L37.1916 23.1593L37.1545 23.1949L37.2086 23.2337L37.2266 23.197Z" fill="#064E3B"/>
<path d="M22.8655 11.5158C23.1584 9.91361 23.4509 8.31105 23.743 6.70815L23.8555 6.71863C23.8693 6.95131 23.882 7.18503 23.8958 7.41771C23.9223 7.88727 23.9372 8.36101 23.9775 8.82532C24.0465 9.62084 24.1038 10.4195 24.2141 11.2098C24.5102 13.3217 24.8125 15.4326 25.1457 17.5393C25.6094 20.4677 26.1007 23.393 26.5887 26.3172C26.732 27.1798 26.907 28.0382 27.062 28.8987C26.8635 28.6126 26.7765 28.2897 26.6174 28.0057C25.9967 26.9041 25.36 25.8141 24.7234 24.7199L24.682 24.5857L24.6428 24.613L24.7202 24.7178C24.8115 25.0322 24.8996 25.3519 24.9961 25.6674C25.3293 26.7627 25.7388 27.8412 25.9861 28.9542C26.4221 30.9163 26.8052 32.893 27.1224 34.8761C27.3092 36.0416 27.3262 37.2333 27.4195 38.4124C26.959 36.7176 26.3468 35.1192 25.3176 33.6833C25.2996 33.845 25.3103 34.0085 25.3494 34.1665C25.6009 35.8288 25.9341 37.4848 26.0784 39.1565C26.2717 41.333 25.9412 43.5238 25.1139 45.55C24.7956 46.3277 24.2905 47.0299 23.8703 47.7667C23.7451 47.6619 23.5871 47.5728 23.5022 47.4397C22.5228 45.9043 22.0167 44.2137 21.7207 42.4298C21.4024 40.4782 21.5562 38.5518 21.8268 36.6201C21.9679 35.615 22.1971 34.6214 22.387 33.6215L22.4104 33.5816L22.3881 33.6225C21.8936 34.5386 21.3483 35.4326 20.9228 36.378C20.6321 37.0247 20.5079 37.7405 20.3095 38.4312C20.4952 33.6875 21.2644 29.0549 22.9621 24.5815C22.4738 25.2548 22.0372 25.9632 21.656 26.7008C21.2857 27.4167 20.9705 28.1598 20.5758 29.0067C21.7992 22.1132 23.0396 15.3582 23.6348 8.51089C23.4841 9.02866 23.4226 9.559 23.3016 10.0831C23.187 10.5788 23.012 11.0421 22.8655 11.5158Z" fill="#73C710"/>
<path d="M23.8682 47.772C24.2926 47.0383 24.7956 46.3329 25.1118 45.5552C25.9391 43.529 26.2696 41.3382 26.0762 39.1618C25.9319 37.49 25.5988 35.834 25.3473 34.1717C25.3082 34.0137 25.2975 33.8502 25.3155 33.6885C26.3447 35.1245 26.9569 36.7228 27.4174 38.4176C27.324 37.2385 27.3113 36.0468 27.1203 34.8813C26.802 32.8983 26.42 30.9215 25.9839 28.9595C25.7367 27.8464 25.3272 26.7679 24.994 25.6726C24.8974 25.3582 24.8094 25.0437 24.7181 24.723C25.3547 25.8173 25.9914 26.9073 26.6142 28.0088C26.7733 28.2929 26.8603 28.6157 27.0588 28.9018C26.9007 28.0413 26.7288 27.1829 26.5855 26.3203C26.0975 23.3961 25.6062 20.4709 25.1425 17.5424C24.8094 15.4357 24.5059 13.3248 24.2109 11.2129C24.1048 10.4226 24.0433 9.62398 23.9743 8.82846C23.934 8.36101 23.9192 7.88516 23.8926 7.42085C24.0581 8.13881 24.2343 8.85466 24.3871 9.57472C24.9176 12.0671 25.4364 14.5616 25.9627 17.054C26.5993 20.06 27.2444 23.0639 27.8726 26.0677C28.3087 28.1566 28.7373 30.2466 29.1352 32.3428C29.3909 33.6896 29.7241 35.0448 29.7559 36.4021C29.7803 37.3926 29.41 38.404 29.1416 39.3861C28.7893 40.6742 28.4254 41.9644 27.9553 43.2117C27.4248 44.6256 26.8635 46.0709 25.5977 47.0331C25.1001 47.4114 24.4539 47.599 23.8746 47.8715C23.8699 47.8386 23.8678 47.8053 23.8682 47.772V47.772Z" fill="#55970B"/>
<path d="M23.8682 47.772C23.8682 47.8071 23.871 47.8421 23.8767 47.8768L23.656 47.8967L23.5446 47.881C21.448 47.2081 20.5206 45.4913 19.8723 43.6435C19.1167 41.4917 18.4743 39.3028 17.9476 37.0855C17.7598 36.29 18.0134 35.3697 18.1651 34.5239C18.5514 32.3679 18.9938 30.2214 19.414 28.0717C19.4808 27.7573 19.5487 27.4429 19.6156 27.1358V27.1232C19.8511 26.1684 20.1132 25.2198 20.3148 24.2587C20.527 23.2274 20.6915 22.1835 20.875 21.1448C20.8695 21.1144 20.8732 21.083 20.8856 21.0547C20.9642 20.6731 21.0423 20.292 21.1201 19.9112C21.1297 19.842 21.1403 19.7728 21.1498 19.7016C21.2379 19.5422 21.362 19.3924 21.4055 19.2226C21.6284 18.2311 21.8448 17.2374 22.0347 16.2386C22.2332 15.1905 22.3987 14.1424 22.5791 13.0943V13.0848L22.8295 11.7317C22.8411 11.6584 22.8528 11.585 22.8655 11.5116C23.012 11.0379 23.1838 10.5683 23.2984 10.0873C23.4183 9.5632 23.4809 9.03915 23.6316 8.51509C23.0364 15.3624 21.796 22.1174 20.5726 29.0108C20.9673 28.1598 21.2825 27.4167 21.6528 26.705C22.0341 25.9674 22.4707 25.259 22.9589 24.5857C21.2612 29.0591 20.4941 33.6917 20.3063 38.4354C20.5047 37.7489 20.6246 37.0289 20.9196 36.3822C21.344 35.4389 21.8904 34.5428 22.3849 33.6267C22.195 34.6266 21.9658 35.6181 21.8247 36.6254C21.553 38.5549 21.4002 40.4834 21.7186 42.435C22.0114 44.2168 22.5207 45.9095 23.5 47.445C23.5849 47.577 23.743 47.664 23.8682 47.772Z" fill="#8AE414"/>
<path d="M20.7392 47.7678C20.7496 47.763 20.7613 47.762 20.7723 47.7648C20.7834 47.7677 20.7931 47.7743 20.7997 47.7835C20.8358 47.8485 20.8718 47.9145 20.9058 47.9795L20.8994 47.9732L21.0904 48.0885L21.222 48.2059C21.222 48.294 21.2305 48.382 21.2358 48.47L20.5992 48.4931C20.3794 48.3778 20.1518 48.2776 19.918 48.1933C18.285 47.7249 16.843 46.76 15.7969 45.4358C14.0674 43.3039 13.2822 40.7455 12.5533 38.1891C11.5421 34.6465 10.9108 30.9981 9.46781 27.5781C8.58078 25.4735 7.39878 23.5775 5.53135 22.1667C5.41232 22.0541 5.30563 21.9294 5.21304 21.7946C6.65712 22.1248 7.8476 22.9014 8.93941 23.8521C8.44709 24.1214 8.93941 24.2619 9.04551 24.3594C11.4541 26.5803 12.8759 29.3903 13.8478 32.4235C14.634 34.8782 15.2176 37.3968 15.938 39.8735C16.511 41.846 17.1243 43.8269 18.3975 45.4861C19.0182 46.2963 19.8554 46.944 20.5949 47.6661H20.5875L20.7392 47.7678Z" fill="#73C710"/>
<path d="M26.2885 48.4155L27.1447 47.5592C27.288 47.51 27.4789 47.5026 27.5691 47.4051C28.193 46.7228 28.8487 46.0594 29.3931 45.3173C30.6408 43.6152 31.2021 41.6049 31.8048 39.6345C32.3714 37.7804 32.7077 35.856 33.3019 34.0124C33.8908 32.1866 34.5571 30.365 35.406 28.645C36.4139 26.6002 37.7806 24.7754 39.7276 23.4517C40.0607 23.2253 40.3164 22.8878 40.6072 22.6017L42.1191 21.8868C42.0449 22.0482 42.013 22.2663 41.89 22.3627C39.9058 23.9086 38.7068 25.9996 37.9164 28.2876C37.0813 30.6983 36.4309 33.1781 35.7582 35.6443C34.8585 38.97 34.1412 42.3595 32.0117 45.2083C30.5888 47.1075 28.7002 48.2216 26.2885 48.4155Z" fill="#73C710"/>
<path d="M26.2885 48.4155C28.7002 48.2248 30.5888 47.1106 32.0106 45.2083C34.1401 42.3595 34.8574 38.97 35.7572 35.6443C36.4256 33.1781 37.0803 30.7014 37.9153 28.2876C38.7068 25.9996 39.9048 23.9086 41.8889 22.3627C42.0141 22.2663 42.0438 22.0482 42.1181 21.8868C42.1276 21.8533 42.1298 21.7978 42.1499 21.7915C42.5605 21.6521 42.9733 21.5179 43.5165 21.3408C42.8481 22.1646 42.2157 22.8574 41.682 23.6162C40.1085 25.8539 39.1122 28.3642 38.3429 30.953C37.44 33.9925 36.6357 37.0614 35.771 40.1124C35.2224 42.0472 34.4489 43.8856 33.2319 45.5164C31.9067 47.2898 30.1602 48.3359 27.9118 48.5119C27.5267 48.5423 27.1415 48.5937 26.7564 48.5926C26.6004 48.5926 26.4444 48.4763 26.2885 48.4155Z" fill="#55970B"/>
<path d="M5.20881 21.7936C5.3014 21.9283 5.40809 22.053 5.52712 22.1656C7.39455 23.5764 8.57654 25.4724 9.46357 27.577C10.9066 30.997 11.5379 34.6455 12.5491 38.1881C13.278 40.7444 14.0632 43.3028 15.7927 45.4347C16.8388 46.759 18.2808 47.7238 19.9137 48.1923C20.1475 48.2766 20.3751 48.3767 20.5949 48.492C18.076 48.6671 16.1014 47.6273 14.581 45.7324C13.0244 43.7944 12.235 41.4865 11.5687 39.1387C11.1771 37.7573 10.81 36.3696 10.4132 34.9903C9.81371 32.9035 9.30548 30.7884 8.55214 28.7603C7.94416 27.1274 7.08472 25.5751 6.23059 24.0439C5.77965 23.2347 5.10058 22.5503 4.53293 21.8061C4.48155 21.722 4.43923 21.6328 4.40666 21.5399C4.51811 21.5305 4.63034 21.5372 4.73983 21.5598C4.90098 21.6279 5.05762 21.706 5.20881 21.7936Z" fill="#55970B"/>
<path d="M40.6061 22.5985C40.3154 22.8847 40.0597 23.2222 39.7265 23.4485C37.7795 24.7723 36.4129 26.5929 35.4049 28.6419C34.5561 30.3619 33.8897 32.1835 33.3009 34.0093C32.7067 35.8529 32.3703 37.7772 31.8037 39.6313C31.2011 41.6018 30.6366 43.6141 29.392 45.3142C28.8477 46.0562 28.192 46.7197 27.5681 47.402C27.4789 47.4995 27.2879 47.5068 27.1436 47.5561C28.6397 45.6014 29.3347 43.3071 30.0371 41.0075C31.0313 37.7584 31.9555 34.4788 33.1406 31.2968C34.2699 28.2025 36.3113 25.5132 39.0018 23.5754C39.5079 23.2117 40.0703 22.9224 40.6061 22.5985Z" fill="#8AE414"/>
<path d="M20.5907 47.663C19.8479 46.9408 19.014 46.2931 18.3933 45.4829C17.12 43.8237 16.5067 41.8428 15.9338 39.8703C15.2133 37.3936 14.6298 34.875 13.8435 32.4203C12.8716 29.3861 11.4498 26.5771 9.04126 24.3562C8.93516 24.2587 8.44284 24.1183 8.93516 23.8489L8.94259 23.8699L9.03808 23.9558L9.054 23.9642L9.35533 24.1738L9.3617 24.1874L9.45825 24.2765L9.47523 24.2912L9.56754 24.3751L9.58452 24.3866L9.76808 24.5082C9.93077 24.6521 10.0928 24.796 10.254 24.94C10.2792 24.9624 10.2979 24.9909 10.3081 25.0228L10.4079 25.1276H10.4174L10.948 25.7303L10.9586 25.7449L11.1304 25.8655L11.1432 25.8791L11.2631 26.0594H11.2726C11.4127 26.2302 11.5538 26.4 11.697 26.5698V26.5855C11.7268 26.6201 11.7575 26.6536 11.7872 26.6903V26.6966L11.8933 26.8014L11.9835 26.9178L12.3782 27.4418C12.3991 27.4674 12.4133 27.4976 12.4196 27.5299L12.5257 27.729H12.5353L12.739 28.0319L12.7517 28.0445L12.9459 28.3589L12.9523 28.3715L13.0584 28.5664V28.578C13.0891 28.6136 13.121 28.6482 13.1517 28.6828L13.2578 28.883L13.2653 28.8955L13.3714 29.0853L13.3809 29.1041C13.4117 29.167 13.4435 29.2299 13.4753 29.2928L13.4902 29.3075C13.5539 29.4123 13.6175 29.5171 13.6801 29.6219V29.6324C13.7151 29.6994 13.7512 29.7665 13.7862 29.8326C13.9546 30.1819 14.124 30.5313 14.2945 30.8807L14.3083 30.9058C14.4144 31.1427 14.5205 31.3806 14.6266 31.6175V31.6259C14.9053 32.3588 15.184 33.0925 15.4627 33.8269L15.5539 34.0459C15.6038 34.2168 15.6547 34.3876 15.7046 34.5585C15.7122 34.5682 15.7164 34.5802 15.7164 34.5925C15.7164 34.6049 15.7122 34.6169 15.7046 34.6266L15.7725 34.7712C16.1969 36.2037 16.6213 37.6361 17.0457 39.0685C17.8606 41.8334 18.4336 44.6905 20.1917 47.0959C20.3551 47.2815 20.4686 47.4722 20.5907 47.663Z" fill="#8AE414"/>
<path d="M10.3814 18.1252L10.5055 18.2384C10.5448 18.3034 10.583 18.3683 10.6211 18.4333L11.5761 19.2718C11.8944 19.7518 12.201 20.2455 12.5491 20.7067C13.017 21.3282 13.5199 21.9235 14.008 22.5293L13.7194 22.7935C13.4591 22.3679 13.1995 21.9424 12.9406 21.5169L12.7337 21.6887C12.7578 21.7791 12.7934 21.8661 12.8398 21.9476C13.6716 23.0188 14.513 24.0816 15.3417 25.1538C16.1704 26.226 16.9991 27.3077 17.8267 28.3862C17.5423 29.1041 17.259 29.8231 16.9683 30.5589C16.163 29.3693 15.416 28.2384 14.634 27.1284C14.1968 26.5059 13.5889 25.9755 13.261 25.3047C12.235 23.2085 11.3045 21.0672 10.3379 18.9438L9.86887 17.9156L10.1946 18.0151L10.3814 18.1252ZM12.3549 21.3041L12.3761 21.2381L12.3379 21.2485L12.3549 21.3041Z" fill="#73C710"/>
<path d="M31.7464 15.419C31.7464 15.5856 31.7369 15.7523 31.7326 15.9189C31.6833 16.0053 31.6476 16.0986 31.6265 16.1956C31.5119 17.7678 31.4143 19.3399 31.2913 20.9121C31.2605 21.301 31.2605 21.7663 31.0462 22.0514C30.6313 22.6038 30.0838 23.0628 29.566 23.5324C29.5098 23.5827 29.1946 23.4905 29.1533 23.3982C28.923 22.8742 28.7384 22.3323 28.5389 21.7957C28.6064 21.7175 28.6647 21.632 28.7129 21.541C29.2286 20.1983 29.7368 18.8536 30.2493 17.51C30.4509 16.9859 30.6599 16.4618 30.8647 15.9315L30.7671 15.8917C30.661 16.0573 30.5496 16.2239 30.3268 16.5646C30.4329 16.0678 30.4891 15.7753 30.5496 15.4819C30.8318 14.7377 31.1077 13.9904 31.3984 13.2494C31.53 12.9171 31.6998 12.5985 31.9098 12.152V13.8227C31.8582 14.3537 31.8037 14.8858 31.7464 15.419Z" fill="#73C710"/>
<path d="M15.8351 15.4934L15.8574 14.9515L15.8733 14.9243L15.8552 14.8981C15.8489 14.6738 15.8436 14.4484 15.8372 14.2241C15.8277 13.9254 15.8107 13.6257 15.8117 13.3269C15.8236 13.2307 15.8479 13.1363 15.8839 13.0461L16.129 13.1991L16.2351 13.4087C16.3083 13.5816 16.3805 13.7556 16.4537 13.9328L17.4755 16.6851L17.4033 16.7176C17.2314 16.4381 17.0599 16.1586 16.8887 15.8791C17.2908 17.2301 17.7916 18.5119 18.2978 19.7927C18.563 20.4656 18.8368 21.1343 19.1063 21.8061C18.9121 22.3302 18.6882 22.8375 18.5323 23.3689C18.3848 23.8678 18.2139 23.7305 17.9625 23.458C17.6155 23.088 17.2123 22.7652 16.894 22.3742C16.6882 22.1216 16.4951 21.7925 16.459 21.4802C16.3157 20.2078 16.2468 18.928 16.1258 17.6535C16.0526 16.923 15.9316 16.2092 15.8351 15.4934Z" fill="#73C710"/>
<path d="M38.3047 17.4858C37.9121 18.2751 37.4697 19.0433 37.1376 19.8567C36.363 21.7537 35.6776 23.6875 34.8797 25.5741C34.5996 26.2344 34.0309 26.7689 33.7041 27.4156C32.8 29.2142 31.9533 31.04 31.0886 32.8574C30.9825 33.088 30.8987 33.3322 30.73 33.7609C30.5591 32.9716 30.4201 32.3616 30.296 31.7475C30.0619 30.5924 29.8327 29.4357 29.6084 28.2772C29.5977 28.1726 29.5977 28.0673 29.6084 27.9627L29.9002 28.4082C30.1538 29.1188 30.4063 29.8305 30.6663 30.5599C31.5809 29.232 32.3449 27.9302 33.3051 26.7868C34.0754 25.8707 34.589 24.8687 35.0548 23.7996C35.755 22.195 36.5169 20.6165 37.2532 19.0266C37.4251 18.6534 37.6002 18.2814 37.7742 17.9082C37.7742 17.838 37.7689 17.7678 37.7657 17.6986L37.8718 17.5938L38.3047 17.4858Z" fill="#55970B"/>
<path d="M9.86889 17.9156L10.3358 18.9469C11.3024 21.0704 12.2329 23.2127 13.2589 25.3079C13.5868 25.9776 14.1947 26.509 14.6319 27.1316C15.4107 28.2415 16.1577 29.3724 16.9662 30.562C17.2569 29.8284 17.5402 29.1073 17.8246 28.3893L17.9179 28.3694C17.7503 29.3588 17.5858 30.3472 17.415 31.3355C17.3103 31.949 17.1989 32.5611 17.0808 33.1718C17.0489 33.3003 17.0088 33.4267 16.9609 33.5502C16.8686 33.4454 16.7402 33.3458 16.6871 33.22C16.1131 31.8575 15.607 30.4677 14.9661 29.1387C14.5237 28.2237 13.8382 27.4251 13.3746 26.5184C12.8621 25.5227 12.496 24.4537 12.0313 23.4328C11.2047 21.6154 10.3495 19.8095 9.51239 17.9973C9.4819 17.8994 9.46512 17.7979 9.46252 17.6955L9.86889 17.9156Z" fill="#55970B"/>
<path d="M29.9013 28.4103L29.6095 27.9649C29.618 27.7992 29.566 27.597 29.6434 27.4733C31.5533 24.4086 33.704 21.5253 36.3131 18.9951C36.3554 18.9649 36.4024 18.9415 36.4521 18.926C36.467 18.9375 36.4818 18.949 36.4956 18.9616C36.2622 19.276 36.033 19.5957 35.7954 19.9049C35.0738 20.8475 34.3513 21.788 33.6276 22.7264L33.5215 22.8312L33.4993 22.8752L33.5237 22.8333L33.6298 22.7285L34.4786 22.0996C34.4095 22.275 34.325 22.444 34.2261 22.6048C33.4642 23.6351 32.6886 24.657 31.9215 25.6852C31.2446 26.5929 30.5711 27.5012 29.9013 28.4103Z" fill="#8AE414"/>
<path d="M17.9158 28.3663L17.8224 28.3862C16.9991 27.3077 16.181 26.225 15.3513 25.1507C14.5215 24.0764 13.6812 23.0157 12.8493 21.9445C12.803 21.863 12.7673 21.776 12.7432 21.6856L12.9406 21.5106C13.1995 21.9361 13.4591 22.3616 13.7194 22.7872L14.0069 22.5273C13.5189 21.9214 13.0159 21.3261 12.548 20.7046C12.2 20.2434 11.8976 19.7498 11.575 19.2697C13.1231 21.1081 14.6987 22.9245 16.2065 24.7933C16.8834 25.6317 17.4256 26.575 18.0293 27.4722L18.0994 27.577C18.1047 27.6347 18.11 27.6934 18.1163 27.751C18.0834 27.8558 18.0516 27.9606 18.0187 28.0655L17.9158 28.3663Z" fill="#8AE414"/>
<path d="M28.5357 21.7936C28.7352 22.3302 28.9198 22.8731 29.1501 23.3961C29.1914 23.4884 29.5066 23.5806 29.5628 23.5303C30.0806 23.0607 30.6238 22.6017 31.043 22.0493C31.2552 21.7642 31.2552 21.2989 31.2881 20.91C31.4122 19.3379 31.5088 17.7657 31.6233 16.1935C31.6444 16.0965 31.6802 16.0032 31.7295 15.9168C31.757 16.292 31.8133 16.6673 31.808 17.0425C31.7846 18.6251 31.7517 20.2088 31.7019 21.7915C31.6939 22.0635 31.613 22.3287 31.4674 22.5597C30.8498 23.4684 30.2005 24.3541 29.5501 25.2397C29.4588 25.3634 29.2975 25.4368 29.1692 25.5332C29.087 25.3945 29.0198 25.2476 28.9686 25.0951C28.7129 23.9422 28.4678 22.7893 28.2259 21.6364C28.1835 21.4362 28.1729 21.2297 28.1463 21.0264L28.5357 21.7936Z" fill="#55970B"/>
<path d="M15.8351 15.4934C15.9317 16.2093 16.0526 16.923 16.1216 17.642C16.2436 18.9165 16.3115 20.1963 16.4548 21.4687C16.4908 21.7831 16.6839 22.1101 16.8898 22.3627C17.2081 22.7537 17.6113 23.0765 17.9582 23.4465C18.214 23.719 18.3827 23.8563 18.528 23.3574C18.684 22.826 18.9079 22.3145 19.102 21.7946L19.4182 21.2591C19.2559 22.1416 19.0999 23.0262 18.9302 23.9087C18.8375 24.3866 18.7339 24.8618 18.6193 25.3341C18.5751 25.4387 18.5142 25.5357 18.4389 25.6213C18.3517 25.5648 18.2722 25.4975 18.2023 25.4211C17.5289 24.4659 16.8594 23.5079 16.1937 22.5472C16.1072 22.4392 16.0512 22.3104 16.0314 22.1741C15.9571 19.9479 15.8977 17.7206 15.8351 15.4934Z" fill="#55970B"/>
<path d="M19.4182 21.259L19.0999 21.7936C18.8304 21.1217 18.5567 20.453 18.2914 19.7801C17.7853 18.4994 17.2845 17.2175 16.8824 15.8665C17.0528 16.146 17.2244 16.4255 17.397 16.705L17.4691 16.6725L16.4473 13.9254C16.929 14.9106 17.4203 15.8896 17.8882 16.8811C18.3721 17.9082 18.8103 18.9574 19.3164 19.9751C19.535 20.4122 19.6304 20.8115 19.4182 21.259Z" fill="#8AE414"/>
<path d="M28.5357 21.7936L28.1453 21.0306C28.1739 20.7486 28.1315 20.4352 28.2407 20.1921C28.8837 18.7446 29.5586 17.3108 30.2334 15.8781C30.3023 15.7303 30.4403 15.6139 30.5464 15.4829C30.4859 15.7764 30.4254 16.0688 30.3236 16.5656C30.5464 16.225 30.6546 16.0583 30.7639 15.8927L30.8615 15.9326C30.6567 16.4566 30.4477 16.9807 30.2461 17.511C29.7336 18.8547 29.2254 20.1994 28.7097 21.542C28.6613 21.632 28.603 21.7164 28.5357 21.7936Z" fill="#8AE414"/>
<path d="M22.5844 13.0943C22.404 14.1424 22.2385 15.1905 22.0401 16.2386C21.8501 17.2374 21.6337 18.23 21.4109 19.2226C21.3727 19.3924 21.2432 19.537 21.1551 19.7015L22.5844 13.0943Z" fill="#73C710"/>
<path d="M20.8804 21.1416C20.6968 22.1803 20.5366 23.2242 20.3201 24.2556C20.1185 25.2167 19.8564 26.1652 19.6209 27.1201C19.8872 25.746 20.144 24.3698 20.4241 22.9989C20.5525 22.3753 20.7276 21.7611 20.8804 21.1416Z" fill="#73C710"/>
<path d="M15.4924 33.8321C15.2144 33.0992 14.9357 32.3655 14.6563 31.6311C14.9307 32.3662 15.2094 33.0999 15.4924 33.8321Z" fill="#73C710"/>
<path d="M16.129 13.1997L15.8797 13.0486C15.8436 13.1389 15.8194 13.2334 15.8075 13.3297C15.8075 13.6286 15.8234 13.9285 15.833 14.2274L15.6643 12.3072L15.798 12.2684L16.129 13.1997Z" fill="#8AE414"/>
<path d="M9.86887 17.9161L9.45613 17.6958C9.44778 17.6654 9.44105 17.6346 9.43597 17.6035L9.34366 17.4924C9.31182 17.4557 9.28105 17.419 9.25028 17.3812C9.21102 17.2763 9.17071 17.1777 9.13039 17.076L10.1989 18.0126L9.86887 17.9161Z" fill="#8AE414"/>
<path d="M11.5761 19.2702L10.6212 18.4312L11.5761 19.2702Z" fill="#8AE414"/>
<path d="M31.7464 15.4199C31.8002 14.8865 31.8547 14.3527 31.9098 13.8185C31.8582 14.3527 31.8037 14.8865 31.7464 15.4199Z" fill="#55970B"/>
<path d="M22.8295 11.7317L22.5875 13.0773L22.8295 11.7317Z" fill="#73C710"/>
<path d="M14.3252 30.8897C14.1555 30.5401 13.9861 30.1905 13.817 29.8409C13.9839 30.1912 14.1534 30.5408 14.3252 30.8897Z" fill="#73C710"/>
<path d="M21.1254 19.907C21.0469 20.2887 20.9688 20.6701 20.8909 21.0512C20.9702 20.6701 21.0483 20.2887 21.1254 19.907Z" fill="#73C710"/>
<path d="M10.9543 25.7327L10.4238 25.1297L10.9543 25.7327Z" fill="#73C710"/>
<path d="M38.3047 17.486L37.8707 17.6013L38.4787 17.272L38.3599 17.465C38.3411 17.4708 38.3226 17.4778 38.3047 17.486V17.486Z" fill="#8AE414"/>
<path d="M19.6156 27.1326C19.5487 27.4473 19.4808 27.7567 19.414 28.0692C19.4808 27.7567 19.5487 27.4441 19.6156 27.1326Z" fill="#73C710"/>
<path d="M11.7002 26.5754C11.5602 26.4055 11.4191 26.2356 11.2758 26.0646C11.4191 26.2356 11.5602 26.4055 11.7002 26.5754Z" fill="#73C710"/>
<path d="M10.2562 24.9382C10.0949 24.7934 9.9329 24.6494 9.7702 24.5061C9.9329 24.6543 10.0949 24.7983 10.2562 24.9382Z" fill="#73C710"/>
<path d="M12.3941 27.4537L11.9994 26.9293L12.3941 27.4537Z" fill="#73C710"/>
<path d="M14.651 31.6263C14.5449 31.3893 14.4388 31.1512 14.3327 30.9142C14.4395 31.1526 14.5456 31.39 14.651 31.6263Z" fill="#73C710"/>
<path d="M16.4526 13.9331C16.3794 13.759 16.3073 13.5849 16.234 13.4087C16.3073 13.5818 16.3794 13.7558 16.4526 13.9331Z" fill="#8AE414"/>
<path d="M36.78 18.6138L37.1079 18.3118L37.1323 18.3327L36.814 18.6474L36.78 18.6138Z" fill="#8AE414"/>
<path d="M21.2305 48.4671C21.2252 48.379 21.2209 48.2909 21.2167 48.2028C21.2814 48.3014 21.3451 48.3999 21.4108 48.4985C21.3862 48.4917 21.3602 48.4917 21.3355 48.4985L21.2305 48.4671Z" fill="#8AE414"/>
<path d="M15.7322 34.564C15.6823 34.3931 15.6314 34.2221 15.5815 34.0512C15.6314 34.2221 15.6823 34.3931 15.7322 34.564Z" fill="#73C710"/>
<path d="M12.9671 28.3654L12.7729 28.0508C12.8398 28.1588 12.9024 28.2626 12.9671 28.3654Z" fill="#73C710"/>
<path d="M9.35533 24.1719L9.05399 23.9621L9.35533 24.1719Z" fill="#73C710"/>
<path d="M12.7602 28.0426L12.5565 27.7395L12.7602 28.0426Z" fill="#73C710"/>
<path d="M13.7014 29.6305C13.6388 29.5256 13.5751 29.4207 13.5114 29.3158C13.5751 29.4218 13.6388 29.5256 13.7014 29.6305Z" fill="#73C710"/>
<path d="M37.7667 17.706C37.7667 17.7762 37.7721 17.8465 37.7752 17.9157H37.5556V17.9105L37.7667 17.706Z" fill="#8AE414"/>
<path d="M18.0155 28.0604C18.0474 27.9555 18.0792 27.8506 18.1121 27.7458C18.0792 27.8506 18.0474 27.9555 18.0155 28.0604Z" fill="#55970B"/>
<path d="M36.4521 18.9261L36.6644 18.7163L36.7025 18.7541L36.4903 18.9638C36.4819 18.9491 36.467 18.9376 36.4521 18.9261Z" fill="#8AE414"/>
<path d="M16.2351 13.4088L16.129 13.1991L16.2351 13.4088Z" fill="#8AE414"/>
<path d="M20.909 47.9796C20.8719 47.9146 20.8358 47.8485 20.8029 47.7835C20.8358 47.8496 20.8719 47.9146 20.909 47.9796Z" fill="#8AE414"/>
<path d="M38.3599 17.4629L38.4787 17.2699C38.4384 17.3339 38.3991 17.3989 38.3599 17.4629Z" fill="#55970B"/>
<path d="M23.5448 47.8778L23.6581 47.8938L23.534 47.9504L23.5448 47.8778Z" fill="#55970B"/>
<path d="M21.0936 48.0886L20.9026 47.9732L21.0936 48.0886Z" fill="#8AE414"/>
<path d="M10.3814 18.1253L10.1872 18.0099L10.3814 18.1253Z" fill="#8AE414"/>
<path d="M37.2437 18.1253L37.441 18.0078L37.4506 18.0183L37.2384 18.1232L37.2437 18.1253Z" fill="#8AE414"/>
<path d="M37.1078 18.3119L37.2437 18.1252L37.1376 18.3349L37.1078 18.3119Z" fill="#8AE414"/>
<path d="M10.619 18.4335C10.5808 18.3684 10.5426 18.3034 10.5034 18.2384C10.5426 18.3034 10.5808 18.3684 10.619 18.4335Z" fill="#8AE414"/>
<path d="M9.7681 24.5061L9.58453 24.3845L9.7681 24.5061Z" fill="#73C710"/>
<path d="M12.5469 27.7354L12.4408 27.5362L12.5469 27.7354Z" fill="#73C710"/>
<path d="M11.1431 25.8683L10.9702 25.747L11.1431 25.8683Z" fill="#73C710"/>
<path d="M11.2694 26.0616L11.1496 25.8812L11.2694 26.0616Z" fill="#73C710"/>
<path d="M13.0753 28.5729L12.9692 28.3778L13.0753 28.5729Z" fill="#73C710"/>
<path d="M13.2801 28.8936L13.174 28.6933L13.2801 28.8936Z" fill="#73C710"/>
<path d="M13.4966 29.3034C13.4647 29.2405 13.4329 29.1775 13.4021 29.1146L13.4966 29.3034Z" fill="#73C710"/>
<path d="M13.8138 29.8411C13.7777 29.775 13.7417 29.7079 13.7077 29.6407C13.7427 29.7079 13.7777 29.775 13.8138 29.8411Z" fill="#73C710"/>
<path d="M13.3926 29.0959L13.2865 28.906L13.3926 29.0959Z" fill="#73C710"/>
<path d="M9.1324 17.0726L9.09857 17.0477L9.12803 17.0769L9.1324 17.0726Z" fill="#8AE414"/>
<path d="M9.25136 17.3768C9.28265 17.4152 9.31394 17.4526 9.34631 17.4899C9.31502 17.4526 9.28265 17.4152 9.25136 17.3768Z" fill="#55970B"/>
<path d="M37.8747 17.6011L37.7668 17.7078L37.8747 17.6011Z" fill="#8AE414"/>
<path d="M15.8554 14.8981L15.8738 14.9247L15.8576 14.9524C15.8536 14.9492 15.8503 14.9451 15.8479 14.9405C15.8456 14.9359 15.8443 14.9309 15.8441 14.9257C15.8439 14.9206 15.8448 14.9155 15.8467 14.9107C15.8487 14.9059 15.8517 14.9016 15.8554 14.8981V14.8981Z" fill="#8AE414"/>
<path d="M11.7962 26.6943C11.766 26.6601 11.7347 26.626 11.7045 26.5876C11.7347 26.626 11.766 26.6601 11.7962 26.6943Z" fill="#73C710"/>
<path d="M13.1735 28.6909C13.1422 28.6557 13.1098 28.6205 13.0785 28.5843C13.1098 28.6205 13.1422 28.6557 13.1735 28.6909Z" fill="#73C710"/>
<path d="M11.9111 26.8054L11.8032 26.6987L11.9111 26.8054Z" fill="#73C710"/>
<path d="M37.2266 23.1918L37.2081 23.2295L37.1524 23.1896L37.1906 23.153L37.2266 23.1918Z" fill="#FDFEFE"/>
<path d="M9.56911 24.3744L9.47523 24.2891L9.56911 24.3744Z" fill="#73C710"/>
<path d="M36.6696 18.7159L36.7764 18.6105L36.8116 18.6474L36.7049 18.7529L36.6696 18.7159Z" fill="#8AE414"/>
<path d="M18.0963 27.5736L18.0251 27.467L18.0963 27.5736Z" fill="#55970B"/>
<path d="M9.34474 17.489L9.43861 17.602L9.34474 17.489Z" fill="#55970B"/>
<path d="M15.8037 34.7774L15.7354 34.6318L15.8037 34.7774Z" fill="#73C710"/>
<path d="M20.7401 47.7685L20.5832 47.663L20.7401 47.7685Z" fill="#8AE414"/>
<path d="M9.45989 24.276L9.36171 24.1853L9.45989 24.276Z" fill="#73C710"/>
<path d="M9.0397 23.9573L8.94259 23.8699L9.0397 23.9573Z" fill="#73C710"/>
<path d="M37.4389 18.0095L37.5543 17.9103V17.9157L37.4464 18.0223L37.4389 18.0095Z" fill="#8AE414"/>
<path d="M21.3355 48.4974C21.3609 48.4904 21.3877 48.4904 21.413 48.4974H21.3355Z" fill="#55970B"/>
<path d="M10.4117 25.1274L10.3103 25.0207L10.4117 25.1274Z" fill="#73C710"/>
<path d="M24.7239 24.7291L24.646 24.6236L24.6854 24.5962L24.7271 24.7312L24.7239 24.7291Z" fill="#55970B"/>
<path d="M22.3892 33.6289L22.4121 33.5869L22.3881 33.6279L22.3892 33.6289Z" fill="#8AE414"/>
<path d="M12.3554 21.305L12.3379 21.2478L12.3772 21.237L12.3554 21.305Z" fill="#8AE414"/>
<path d="M37.4484 18.0204L37.5546 17.9156H37.7742C37.6002 18.2887 37.4251 18.6608 37.2532 19.0339C36.5169 20.6239 35.755 22.2023 35.0547 23.807C34.589 24.876 34.0754 25.878 33.3051 26.7941C32.3449 27.9355 31.5809 29.2372 30.6663 30.5673C30.4063 29.8336 30.1538 29.1261 29.9002 28.4155C30.5729 27.5071 31.2449 26.5988 31.9162 25.6904C32.6833 24.6622 33.4589 23.6403 34.2208 22.61C34.3197 22.4492 34.4042 22.2802 34.4733 22.1048L35.0091 21.737L34.8457 21.5756L34.4733 22.0996L33.6245 22.7285C34.3467 21.7887 35.0692 20.8482 35.7922 19.907C36.0298 19.5925 36.259 19.2781 36.4925 18.9637L36.7047 18.754L36.8108 18.6492L37.1291 18.3348L37.2352 18.1252L37.4484 18.0204ZM35.3678 21.1333L35.3518 21.1752C35.3646 21.1752 35.3847 21.1909 35.3879 21.1878C35.3959 21.1752 35.4017 21.1614 35.4049 21.1469L35.3678 21.1333Z" fill="#73C710"/>
<path d="M33.5215 22.8372L33.6294 22.7306L33.5215 22.8372Z" fill="#73C710"/>
<path d="M33.5241 22.8417L33.4993 22.8844L33.5219 22.8396L33.5241 22.8417Z" fill="#73C710"/>
<path d="M34.4775 22.1083L34.85 21.584L35.0134 21.7455L34.4775 22.1083Z" fill="#8AE414"/>
<path d="M35.368 21.1312L35.4058 21.145C35.4025 21.1598 35.3967 21.1738 35.3885 21.1866C35.3885 21.1866 35.3648 21.1792 35.3518 21.1738L35.368 21.1312Z" fill="#8AE414"/>
</g>
<path d="M65.3785 38.8546C64.4491 38.8546 63.6056 38.6796 62.8481 38.3295C62.0906 37.973 61.489 37.4605 61.0434 36.7921C60.5978 36.1174 60.375 35.3025 60.375 34.3477C60.375 33.5074 60.5405 32.8263 60.8715 32.3043C61.2025 31.7759 61.645 31.3622 62.1988 31.063C62.7526 30.7638 63.3637 30.541 64.0321 30.3946C64.7069 30.2418 65.3848 30.1208 66.066 30.0317C66.9572 29.9171 67.6797 29.8312 68.2335 29.7739C68.7937 29.7102 69.2011 29.6052 69.4557 29.4588C69.7167 29.3124 69.8472 29.0578 69.8472 28.6949V28.6185C69.8472 27.6764 69.5894 26.9443 69.0738 26.4223C68.5645 25.9003 67.7911 25.6394 66.7535 25.6394C65.6777 25.6394 64.8342 25.8749 64.2231 26.3459C63.612 26.817 63.1823 27.3199 62.934 27.8546L60.7951 27.0907C61.1771 26.1995 61.6863 25.5057 62.3229 25.0091C62.9659 24.5062 63.6661 24.1561 64.4236 23.9588C65.1875 23.7551 65.9387 23.6532 66.6771 23.6532C67.1481 23.6532 67.6892 23.7105 68.3003 23.8251C68.9178 23.9333 69.513 24.1593 70.0859 24.5031C70.6652 24.8468 71.1458 25.3656 71.5278 26.0595C71.9097 26.7534 72.1007 27.6828 72.1007 28.8477V38.5109H69.8472V36.5248H69.7326C69.5799 36.8431 69.3252 37.1836 68.9688 37.5465C68.6123 37.9093 68.138 38.2181 67.546 38.4727C66.954 38.7273 66.2315 38.8546 65.3785 38.8546ZM65.7222 36.8303C66.6134 36.8303 67.3646 36.6553 67.9757 36.3052C68.5932 35.955 69.0579 35.5031 69.3698 34.9492C69.6881 34.3954 69.8472 33.813 69.8472 33.2019V31.1394C69.7517 31.2539 69.5417 31.359 69.217 31.4545C68.8987 31.5436 68.5295 31.6231 68.1094 31.6932C67.6956 31.7568 67.2914 31.8141 66.8967 31.865C66.5084 31.9096 66.1933 31.9478 65.9514 31.9796C65.3657 32.056 64.8183 32.1802 64.309 32.352C63.8061 32.5175 63.3987 32.769 63.0868 33.1064C62.7813 33.4374 62.6285 33.8894 62.6285 34.4623C62.6285 35.2453 62.9181 35.8373 63.4974 36.2383C64.083 36.633 64.8247 36.8303 65.7222 36.8303ZM76.3161 18.9553V38.5109H74.0626V18.9553H76.3161ZM84.2507 38.8164C82.9267 38.8164 81.7649 38.5013 80.7655 37.8711C79.7724 37.2409 78.9958 36.3593 78.4356 35.2262C77.8818 34.0931 77.6049 32.769 77.6049 31.2539C77.6049 29.7262 77.8818 28.3925 78.4356 27.2531C78.9958 26.1136 79.7724 25.2288 80.7655 24.5986C81.7649 23.9683 82.9267 23.6532 84.2507 23.6532C85.5748 23.6532 86.7334 23.9683 87.7264 24.5986C88.7258 25.2288 89.5025 26.1136 90.0563 27.2531C90.6165 28.3925 90.8966 29.7262 90.8966 31.2539C90.8966 32.769 90.6165 34.0931 90.0563 35.2262C89.5025 36.3593 88.7258 37.2409 87.7264 37.8711C86.7334 38.5013 85.5748 38.8164 84.2507 38.8164ZM84.2507 36.7921C85.2565 36.7921 86.0841 36.5343 86.7334 36.0187C87.3827 35.5031 87.8633 34.8251 88.1752 33.9848C88.4871 33.1446 88.6431 32.2343 88.6431 31.2539C88.6431 30.2736 88.4871 29.3601 88.1752 28.5135C87.8633 27.6668 87.3827 26.9825 86.7334 26.4605C86.0841 25.9385 85.2565 25.6775 84.2507 25.6775C83.2449 25.6775 82.4174 25.9385 81.7681 26.4605C81.1188 26.9825 80.6382 27.6668 80.3263 28.5135C80.0143 29.3601 79.8584 30.2736 79.8584 31.2539C79.8584 32.2343 80.0143 33.1446 80.3263 33.9848C80.6382 34.8251 81.1188 35.5031 81.7681 36.0187C82.4174 36.5343 83.2449 36.7921 84.2507 36.7921ZM92.1853 23.8442H94.4388V39.5803C94.4388 40.4843 94.2829 41.2672 93.9709 41.9293C93.6654 42.5913 93.2007 43.1038 92.5768 43.4666C91.9594 43.8295 91.1796 44.0109 90.2374 44.0109C90.161 44.0109 90.0846 44.0109 90.0083 44.0109C89.9319 44.0109 89.8555 44.0109 89.7791 44.0109V41.9102C89.8555 41.9102 89.9255 41.9102 89.9892 41.9102C90.0528 41.9102 90.1228 41.9102 90.1992 41.9102C90.8867 41.9102 91.3896 41.7065 91.7079 41.2991C92.0262 40.898 92.1853 40.3251 92.1853 39.5803V23.8442ZM93.293 21.3998C92.8537 21.3998 92.475 21.2502 92.1567 20.951C91.8448 20.6518 91.6888 20.2921 91.6888 19.872C91.6888 19.4519 91.8448 19.0922 92.1567 18.793C92.475 18.4938 92.8537 18.3442 93.293 18.3442C93.7322 18.3442 94.1078 18.4938 94.4197 18.793C94.738 19.0922 94.8971 19.4519 94.8971 19.872C94.8971 20.2921 94.738 20.6518 94.4197 20.951C94.1078 21.2502 93.7322 21.3998 93.293 21.3998ZM100.731 38.8546C99.8017 38.8546 98.9582 38.6796 98.2007 38.3295C97.4432 37.973 96.8416 37.4605 96.396 36.7921C95.9504 36.1174 95.7276 35.3025 95.7276 34.3477C95.7276 33.5074 95.8931 32.8263 96.2241 32.3043C96.5551 31.7759 96.9976 31.3622 97.5514 31.063C98.1052 30.7638 98.7163 30.541 99.3847 30.3946C100.059 30.2418 100.737 30.1208 101.419 30.0317C102.31 29.9171 103.032 29.8312 103.586 29.7739C104.146 29.7102 104.554 29.6052 104.808 29.4588C105.069 29.3124 105.2 29.0578 105.2 28.6949V28.6185C105.2 27.6764 104.942 26.9443 104.426 26.4223C103.917 25.9003 103.144 25.6394 102.106 25.6394C101.03 25.6394 100.187 25.8749 99.5757 26.3459C98.9646 26.817 98.5349 27.3199 98.2866 27.8546L96.1477 27.0907C96.5297 26.1995 97.0389 25.5057 97.6755 25.0091C98.3184 24.5062 99.0187 24.1561 99.7762 23.9588C100.54 23.7551 101.291 23.6532 102.03 23.6532C102.501 23.6532 103.042 23.7105 103.653 23.8251C104.27 23.9333 104.866 24.1593 105.439 24.5031C106.018 24.8468 106.498 25.3656 106.88 26.0595C107.262 26.7534 107.453 27.6828 107.453 28.8477V38.5109H105.2V36.5248H105.085C104.932 36.8431 104.678 37.1836 104.321 37.5465C103.965 37.9093 103.491 38.2181 102.899 38.4727C102.307 38.7273 101.584 38.8546 100.731 38.8546ZM101.075 36.8303C101.966 36.8303 102.717 36.6553 103.328 36.3052C103.946 35.955 104.41 35.5031 104.722 34.9492C105.041 34.3954 105.2 33.813 105.2 33.2019V31.1394C105.104 31.2539 104.894 31.359 104.57 31.4545C104.251 31.5436 103.882 31.6231 103.462 31.6932C103.048 31.7568 102.644 31.8141 102.249 31.865C101.861 31.9096 101.546 31.9478 101.304 31.9796C100.718 32.056 100.171 32.1802 99.6616 32.352C99.1587 32.5175 98.7513 32.769 98.4394 33.1064C98.1338 33.4374 97.9811 33.8894 97.9811 34.4623C97.9811 35.2453 98.2707 35.8373 98.85 36.2383C99.4356 36.633 100.177 36.8303 101.075 36.8303ZM117.08 29.688V38.5109H114.827V23.8442H117.004V26.1359H117.195C117.538 25.3911 118.06 24.7927 118.761 24.3407C119.461 23.8824 120.365 23.6532 121.472 23.6532C122.466 23.6532 123.334 23.8569 124.079 24.2644C124.824 24.6654 125.403 25.2765 125.817 26.0977C126.231 26.9125 126.438 27.9437 126.438 29.1914V38.5109H124.184V29.3442C124.184 28.192 123.885 27.2944 123.287 26.6515C122.688 26.0022 121.867 25.6775 120.823 25.6775C120.104 25.6775 119.461 25.8335 118.894 26.1454C118.334 26.4573 117.892 26.9125 117.567 27.5109C117.242 28.1093 117.08 28.835 117.08 29.688ZM132.72 38.8546C131.791 38.8546 130.948 38.6796 130.19 38.3295C129.433 37.973 128.831 37.4605 128.385 36.7921C127.94 36.1174 127.717 35.3025 127.717 34.3477C127.717 33.5074 127.882 32.8263 128.213 32.3043C128.545 31.7759 128.987 31.3622 129.541 31.063C130.095 30.7638 130.706 30.541 131.374 30.3946C132.049 30.2418 132.727 30.1208 133.408 30.0317C134.299 29.9171 135.022 29.8312 135.575 29.7739C136.136 29.7102 136.543 29.6052 136.798 29.4588C137.059 29.3124 137.189 29.0578 137.189 28.6949V28.6185C137.189 27.6764 136.931 26.9443 136.416 26.4223C135.906 25.9003 135.133 25.6394 134.095 25.6394C133.02 25.6394 132.176 25.8749 131.565 26.3459C130.954 26.817 130.524 27.3199 130.276 27.8546L128.137 27.0907C128.519 26.1995 129.028 25.5057 129.665 25.0091C130.308 24.5062 131.008 24.1561 131.766 23.9588C132.529 23.7551 133.281 23.6532 134.019 23.6532C134.49 23.6532 135.031 23.7105 135.642 23.8251C136.26 23.9333 136.855 24.1593 137.428 24.5031C138.007 24.8468 138.488 25.3656 138.87 26.0595C139.252 26.7534 139.443 27.6828 139.443 28.8477V38.5109H137.189V36.5248H137.075C136.922 36.8431 136.667 37.1836 136.311 37.5465C135.954 37.9093 135.48 38.2181 134.888 38.4727C134.296 38.7273 133.573 38.8546 132.72 38.8546ZM133.064 36.8303C133.955 36.8303 134.707 36.6553 135.318 36.3052C135.935 35.955 136.4 35.5031 136.712 34.9492C137.03 34.3954 137.189 33.813 137.189 33.2019V31.1394C137.094 31.2539 136.884 31.359 136.559 31.4545C136.241 31.5436 135.871 31.6231 135.451 31.6932C135.038 31.7568 134.633 31.8141 134.239 31.865C133.85 31.9096 133.535 31.9478 133.293 31.9796C132.708 32.056 132.16 32.1802 131.651 32.352C131.148 32.5175 130.741 32.769 130.429 33.1064C130.123 33.4374 129.97 33.8894 129.97 34.4623C129.97 35.2453 130.26 35.8373 130.839 36.2383C131.425 36.633 132.167 36.8303 133.064 36.8303ZM148.917 33.1637L148.878 30.3755H149.337L155.753 23.8442H158.542L151.705 30.7574H151.514L148.917 33.1637ZM146.816 38.5109V18.9553H149.069V38.5109H146.816ZM156.135 38.5109L150.406 31.2539L152.01 29.688L159 38.5109H156.135ZM161.544 18.9553V38.5109H159.291V18.9553H161.544ZM163.521 38.5109V23.8442H165.774V38.5109H163.521ZM164.667 21.3998C164.227 21.3998 163.849 21.2502 163.53 20.951C163.218 20.6518 163.062 20.2921 163.062 19.872C163.062 19.4519 163.218 19.0922 163.53 18.793C163.849 18.4938 164.227 18.3442 164.667 18.3442C165.106 18.3442 165.481 18.4938 165.793 18.793C166.112 19.0922 166.271 19.4519 166.271 19.872C166.271 20.2921 166.112 20.6518 165.793 20.951C165.481 21.2502 165.106 21.3998 164.667 21.3998ZM169.851 33.1637L169.813 30.3755H170.271L176.688 23.8442H179.476L172.639 30.7574H172.448L169.851 33.1637ZM167.75 38.5109V18.9553H170.004V38.5109H167.75ZM177.07 38.5109L171.341 31.2539L172.945 29.688L179.934 38.5109H177.07Z" fill="#064E3B"/>
<defs>
<clipPath id="clip0_304_36897">
<rect width="47.6667" height="48.8889" fill="white" transform="translate(0 1.04103)"/>
</clipPath>
</defs>
</svg>
