<svg viewBox="0 0 128 128" height="128" width="128" xmlns="http://www.w3.org/2000/svg"><g transform="matrix(1.28,0,0,1.28,0,0)"><path d="M10.000 50.000 A40.000 40.000 0 1 0 90.000 50.000 A40.000 40.000 0 1 0 10.000 50.000 Z" fill="#e8f4fa" stroke="#daedf7"></path><path d="M41.120 75.066 A19.824 2.46 0 1 0 80.768 75.066 A19.824 2.46 0 1 0 41.120 75.066 Z" fill="#45413c" opacity=".15"></path><path d="M10.153 74.053 A14.615 1.736 0 1 0 39.383 74.053 A14.615 1.736 0 1 0 10.153 74.053 Z" fill="#45413c" opacity=".15"></path><path d="M54.932,53.492a3.669,3.669,0,0,0,0,7.338H80.618a1.468,1.468,0,0,1,0,2.936H54.932a6.605,6.605,0,0,1,0-13.21H80.618a1.468,1.468,0,0,1,0,2.936Z" fill="#9f5ae5"></path><path d="M48.328,57.161a6.6,6.6,0,0,1,6.6-6.605H80.618a1.468,1.468,0,0,1,0,2.936H54.932a3.669,3.669,0,0,0-3.669,3.669Z" fill="#bf8df2"></path><path d="M54.932,53.492a3.669,3.669,0,0,0,0,7.338H80.618a1.468,1.468,0,0,1,0,2.936H54.932a6.605,6.605,0,0,1,0-13.21H80.618a1.468,1.468,0,0,1,0,2.936Z" fill="none" stroke="#45413c" stroke-linecap="round" stroke-linejoin="round"></path><path d="M80.618,60.83V53.492H54.932a3.669,3.669,0,0,0,0,7.338Z" fill="#fff5e3" stroke="#45413c" stroke-linecap="round" stroke-linejoin="round"></path><path d="M52.731,41.751a4.4,4.4,0,0,0,0,8.807H73.279a1.468,1.468,0,0,0,1.468-1.468V47.622H52.731a1.468,1.468,0,1,1,0-2.935H74.747V43.219a1.468,1.468,0,0,0-1.468-1.468Z" fill="#00b8f0"></path><path d="M51.263,46.154a1.467,1.467,0,0,1,1.468-1.467H74.747V43.219a1.468,1.468,0,0,0-1.468-1.468H52.731a4.4,4.4,0,0,0-4.4,4.4Z" fill="#4acfff"></path><path d="M52.731,41.751a4.4,4.4,0,0,0,0,8.807H73.279a1.468,1.468,0,0,0,1.468-1.468V47.622H52.731a1.468,1.468,0,1,1,0-2.935H74.747V43.219a1.468,1.468,0,0,0-1.468-1.468Z" fill="none" stroke="#45413c" stroke-linecap="round" stroke-linejoin="round"></path><path d="M73.279,47.622V44.687H52.731a1.468,1.468,0,1,0,0,2.935Z" fill="#fff5e3" stroke="#45413c" stroke-linecap="round" stroke-linejoin="round"></path><path d="M17.671 47.114 L61.703 47.114 L61.703 57.388 L17.671 57.388 Z" fill="#b89558" transform="translate(-24.028 67.92) rotate(-66.599)"></path><path d="M30.166,72.12,27.575,71a1.468,1.468,0,0,1-.764-1.93L43.133,31.352a1.468,1.468,0,0,1,1.93-.764l2.591,1.121Z" fill="#debb7e"></path><path d="M17.671 47.114 L61.703 47.114 L61.703 57.388 L17.671 57.388 Z" fill="none" stroke="#45413c" stroke-linecap="round" stroke-linejoin="round" transform="translate(-24.028 67.92) rotate(-66.599)"></path><path d="M41.414 36.338H47.285000000000004V46.612H41.414z" fill="#f0d5a8" stroke="#45413c" stroke-linecap="round" stroke-linejoin="round" transform="translate(-11.327 65.705) rotate(-66.6)"></path><path d="M4.887 50.333 L45.983 50.333 L45.983 59.139 L4.887 59.139 Z" fill="#ff8a14" transform="translate(-34.561 48.142) rotate(-58.804)"></path><path d="M14.021,71.847l-1.74-1.054a1.467,1.467,0,0,1-.5-2.016L31.552,36.134a1.467,1.467,0,0,1,2.015-.495l1.74,1.054Z" fill="#ffaa54"></path><path d="M4.887 50.333 L45.983 50.333 L45.983 59.139 L4.887 59.139 Z" fill="none" stroke="#45413c" stroke-linecap="round" stroke-linejoin="round" transform="translate(-34.561 48.142) rotate(-58.804)"></path><path d="M27.821 41.545H33.692V50.351H27.821z" fill="#ffcc99" stroke="#45413c" stroke-linecap="round" stroke-linejoin="round" transform="translate(-24.478 48.458) rotate(-58.804)"></path><path d="M40.989 63.766 L85.021 63.766 L85.021 74.040 L40.989 74.040 Z" fill="#6dd627"></path><path d="M85.021,67.436v-2.2a1.467,1.467,0,0,0-1.468-1.467h-41.1a1.467,1.467,0,0,0-1.468,1.467v2.2Z" fill="#9ceb60"></path><path d="M40.989 63.766 L85.021 63.766 L85.021 74.040 L40.989 74.040 Z" fill="none" stroke="#45413c" stroke-linecap="round" stroke-linejoin="round"></path><path d="M70.344 63.766H76.21499999999999V74.03999999999999H70.344z" fill="#c8ffa1" stroke="#45413c" stroke-linecap="round" stroke-linejoin="round"></path><path d="M62.271,24.8c7.339-3.669,9.54,2.07,9.54,7.339s-4.4,12.678-9.54,8.275c-5.137,4.4-9.54-3.006-9.54-8.275S54.932,21.128,62.271,24.8Z" fill="#ff6242"></path><path d="M62.271,27.808a15.969,15.969,0,0,1,9.477,2.9c-.382-4.8-2.8-9.253-9.477-5.914-6.679-3.339-9.095,1.115-9.477,5.914A15.969,15.969,0,0,1,62.271,27.808Z" fill="#ff866e"></path><path d="M62.271,24.8c7.339-3.669,9.54,2.07,9.54,7.339s-4.4,12.678-9.54,8.275c-5.137,4.4-9.54-3.006-9.54-8.275S54.932,21.128,62.271,24.8Z" fill="none" stroke="#45413c" stroke-linecap="round" stroke-linejoin="round"></path><path d="M67.406,14.782s1.361,1.88-.779,4.861-4.356,2.294-4.356,2.294-1.36-1.88.779-4.861S67.406,14.782,67.406,14.782Z" fill="#6dd627" stroke="#45413c" stroke-linecap="round" stroke-linejoin="round"></path></g></svg>