<svg width="900" height="600" viewBox="0 0 900 600" fill="none" xmlns="http://www.w3.org/2000/svg">
<rect width="900" height="600" rx="24" fill="#75B5A0"/>
<path fill-rule="evenodd" clip-rule="evenodd" d="M368.029 127H567.903C573.232 127 579.332 127.95 581.11 132.973C581.566 134.264 581.86 135.802 581.86 137.623V174.66V210.549C581.86 211.338 581.825 212.119 581.755 212.89V369.026C581.755 391.117 563.846 409.026 541.755 409.026H357.241C335.149 409.026 317.241 391.117 317.241 369.026V210.622C317.241 210.598 317.241 210.574 317.241 210.549V177.532C317.241 149.682 340.038 127 368.029 127Z" fill="#FFF0DC"/>
<path d="M581.755 212.89L578.767 212.62L578.755 212.755V212.89H581.755ZM317.241 210.622L320.241 210.622L320.241 210.614L317.241 210.622ZM581.11 132.973L578.282 133.974L581.11 132.973ZM567.903 124H368.029V130H567.903V124ZM584.86 137.623C584.86 135.472 584.512 133.595 583.938 131.972L578.282 133.974C578.621 134.932 578.86 136.131 578.86 137.623H584.86ZM584.86 174.66V137.623H578.86V174.66H584.86ZM584.86 210.549V174.66H578.86V210.549H584.86ZM584.743 213.161C584.821 212.3 584.86 211.429 584.86 210.549H578.86C578.86 211.247 578.829 211.938 578.767 212.62L584.743 213.161ZM584.755 369.026V212.89H578.755V369.026H584.755ZM357.241 412.026H541.755V406.026H357.241V412.026ZM314.241 210.622V369.026H320.241V210.622H314.241ZM314.241 210.549C314.241 210.576 314.241 210.603 314.241 210.63L320.241 210.614C320.241 210.592 320.241 210.571 320.241 210.549H314.241ZM314.241 177.532V210.549H320.241V177.532H314.241ZM368.029 124C338.395 124 314.241 148.011 314.241 177.532H320.241C320.241 151.353 341.68 130 368.029 130V124ZM357.241 406.026C336.806 406.026 320.241 389.46 320.241 369.026H314.241C314.241 392.774 333.493 412.026 357.241 412.026V406.026ZM578.755 369.026C578.755 389.46 562.189 406.026 541.755 406.026V412.026C565.503 412.026 584.755 392.774 584.755 369.026H578.755ZM567.903 130C570.447 130 572.897 130.235 574.825 130.927C576.687 131.594 577.784 132.57 578.282 133.974L583.938 131.972C582.657 128.353 579.816 126.342 576.851 125.279C573.953 124.24 570.688 124 567.903 124V130Z" fill="#282F34"/>
<path fill-rule="evenodd" clip-rule="evenodd" d="M354.24 295.692C327.674 277.753 291.855 296.786 291.855 328.842V398.223C291.855 422.364 307.489 441.918 326.791 441.918H571.321C590.622 441.918 606.256 422.364 606.256 398.223V327.577C606.256 295.521 570.437 276.488 543.871 294.427L499.178 324.606C468.301 345.457 427.937 345.457 397.059 324.606L354.24 295.692Z" fill="#FFC18F"/>
<path d="M499.178 324.606L497.5 322.12L497.5 322.12L499.178 324.606ZM397.059 324.606L398.738 322.12L398.738 322.12L397.059 324.606ZM543.871 294.427L542.192 291.941L542.192 291.941L543.871 294.427ZM354.24 295.692L352.561 298.178L354.24 295.692ZM288.855 328.842V398.223H294.855V328.842H288.855ZM288.855 398.223C288.855 423.36 305.24 444.918 326.791 444.918V438.918C309.737 438.918 294.855 421.368 294.855 398.223H288.855ZM326.791 444.918H571.321V438.918H326.791V444.918ZM571.321 444.918C592.871 444.918 609.256 423.36 609.256 398.223H603.256C603.256 421.368 588.374 438.918 571.321 438.918V444.918ZM609.256 398.223V327.577H603.256V398.223H609.256ZM542.192 291.941L497.5 322.12L500.857 327.092L545.55 296.913L542.192 291.941ZM497.5 322.12C467.637 342.286 428.601 342.286 398.738 322.12L395.38 327.092C427.272 348.629 468.965 348.629 500.857 327.092L497.5 322.12ZM398.738 322.12L355.919 293.206L352.561 298.178L395.38 327.092L398.738 322.12ZM609.256 327.577C609.256 293.117 570.75 272.656 542.192 291.941L545.55 296.913C570.123 280.32 603.256 297.926 603.256 327.577H609.256ZM294.855 328.842C294.855 299.191 327.988 281.585 352.561 298.178L355.919 293.206C327.361 273.921 288.855 294.382 288.855 328.842H294.855Z" fill="#282F34"/>
<rect x="350.449" y="165.585" width="196.528" height="29.8232" rx="14.9116" fill="#75B5A0" stroke="#FFF0DC" stroke-width="6"/>
<rect x="350.448" y="215.292" width="196.528" height="29.8232" rx="14.9116" fill="#75B5A0" stroke="#FFF0DC" stroke-width="6"/>
<rect x="374.672" y="264.959" width="133.713" height="30.4215" rx="15.2107" fill="#75B5A0" stroke="#FFF0DC" stroke-width="6"/>
<circle cx="449.957" cy="418.177" r="54.8204" fill="#FFB200" stroke="#282F34" stroke-width="6"/>
<path d="M450.13 416.735C449.796 416.702 449.397 416.702 449.03 416.735C441.104 416.474 434.81 410.131 434.81 402.325C434.81 394.355 441.404 387.882 449.597 387.882C457.756 387.882 464.384 394.355 464.384 402.325C464.35 410.131 458.056 416.474 450.13 416.735Z" fill="white"/>
<path d="M433.547 424.934C425.613 430.354 425.613 439.188 433.547 444.576C442.564 450.733 457.351 450.733 466.367 444.576C474.302 439.155 474.302 430.321 466.367 424.934C457.383 418.81 442.596 418.81 433.547 424.934Z" fill="white"/>
<circle cx="582.684" cy="415.656" r="47.0472" fill="#84B229" stroke="#282F34" stroke-width="6"/>
<path d="M582.832 414.417C582.546 414.389 582.203 414.389 581.889 414.417C575.086 414.194 569.684 408.75 569.684 402.05C569.684 395.211 575.344 389.655 582.375 389.655C589.377 389.655 595.065 395.211 595.065 402.05C595.036 408.75 589.634 414.194 582.832 414.417Z" fill="white"/>
<path d="M568.601 421.453C561.792 426.105 561.792 433.687 568.601 438.31C576.339 443.594 589.029 443.594 596.767 438.31C603.577 433.658 603.577 426.077 596.767 421.453C589.058 416.198 576.367 416.198 568.601 421.453Z" fill="white"/>
<circle cx="317.047" cy="413.03" r="47.0472" fill="#F97C42" stroke="#282F34" stroke-width="6"/>
<path d="M317.195 411.791C316.909 411.763 316.566 411.763 316.252 411.791C309.449 411.568 304.047 406.124 304.047 399.424C304.047 392.585 309.707 387.029 316.738 387.029C323.74 387.029 329.428 392.585 329.428 399.424C329.399 406.124 323.998 411.568 317.195 411.791Z" fill="white"/>
<path d="M302.964 418.827C296.154 423.479 296.154 431.061 302.964 435.684C310.702 440.968 323.392 440.968 331.13 435.684C337.94 431.032 337.94 423.451 331.13 418.827C323.42 413.572 310.73 413.572 302.964 418.827Z" fill="white"/>
</svg>
