<svg width="32" height="33" viewBox="0 0 32 33" fill="none" xmlns="http://www.w3.org/2000/svg">
<path opacity="0.4" d="M21.3333 4.5H10.4C8.15979 4.5 7.03969 4.5 6.18404 4.93597C5.43139 5.31947 4.81947 5.93139 4.43597 6.68404C4 7.53969 4 8.65979 4 10.9V22.1C4 24.3402 4 25.4603 4.43597 26.316C4.81947 27.0686 5.43139 27.6805 6.18404 28.064C7.03969 28.5 8.15979 28.5 10.4 28.5H21.6C23.8402 28.5 24.9603 28.5 25.816 28.064C26.5686 27.6805 27.1805 27.0686 27.564 26.316C28 25.4603 28 24.3402 28 22.1V16.5" stroke="#6CE9A6" stroke-width="2" stroke-linecap="round" stroke-linejoin="round"/>
<path d="M12 15.1667L16 19.1667L29.3333 5.83337" stroke="#12B76A" stroke-width="3" stroke-linecap="round" stroke-linejoin="round"/>
</svg>
