<svg width="51" height="50" viewBox="0 0 51 50" fill="none" xmlns="http://www.w3.org/2000/svg">
<path d="M1.53809 25C1.53809 11.7452 12.2833 1 25.5381 1V1C38.7929 1 49.5381 11.7452 49.5381 25V25C49.5381 38.2548 38.7929 49 25.5381 49V49C12.2833 49 1.53809 38.2548 1.53809 25V25Z" fill="#FFDF70"/>
<path d="M32.5381 18L18.5381 32M22.5381 19.5C22.5381 20.8807 21.4188 22 20.0381 22C18.6574 22 17.5381 20.8807 17.5381 19.5C17.5381 18.1193 18.6574 17 20.0381 17C21.4188 17 22.5381 18.1193 22.5381 19.5ZM33.5381 30.5C33.5381 31.8807 32.4188 33 31.0381 33C29.6574 33 28.5381 31.8807 28.5381 30.5C28.5381 29.1193 29.6574 28 31.0381 28C32.4188 28 33.5381 29.1193 33.5381 30.5Z" stroke="#3F3F3F" stroke-width="2" stroke-linecap="round" stroke-linejoin="round"/>
<path d="M25.5381 48C12.8355 48 2.53809 37.7025 2.53809 25H0.538086C0.538086 38.8071 11.731 50 25.5381 50V48ZM48.5381 25C48.5381 37.7025 38.2406 48 25.5381 48V50C39.3452 50 50.5381 38.8071 50.5381 25H48.5381ZM25.5381 2C38.2406 2 48.5381 12.2975 48.5381 25H50.5381C50.5381 11.1929 39.3452 0 25.5381 0V2ZM25.5381 0C11.731 0 0.538086 11.1929 0.538086 25H2.53809C2.53809 12.2975 12.8355 2 25.5381 2V0Z" fill="#D9A900" fill-opacity="0.24"/>
</svg>
