<svg width="900" height="600" viewBox="0 0 900 600" fill="none" xmlns="http://www.w3.org/2000/svg">
<rect width="900" height="600" rx="24" fill="#FFB200"/>
<path d="M245.941 192.72L348.433 165.257C355.494 163.366 361.837 161.985 367.697 161.532C398.804 157.823 411.835 174.114 425.316 224.424L449.246 313.733C462.727 364.044 459.587 384.667 430.793 397.009C425.492 399.546 419.308 401.522 412.247 403.414L309.754 430.877C302.694 432.769 296.351 434.149 290.491 434.603C259.384 438.311 246.353 422.021 232.872 371.71L208.942 282.401C195.461 232.091 198.601 211.467 227.395 199.125C232.696 196.588 238.88 194.612 245.941 192.72Z" fill="#FEEED4" stroke="#282F34" stroke-width="6"/>
<rect x="253.752" y="272.754" width="131.547" height="19.9623" rx="9.98117" transform="rotate(-15 253.752 272.754)" fill="#75B5A0" stroke="#75B5A0" stroke-width="6"/>
<rect x="243.948" y="236.168" width="19.9623" height="19.9623" rx="9.98117" transform="rotate(-15 243.948 236.168)" fill="#75B5A0" stroke="#75B5A0" stroke-width="6"/>
<rect x="276.086" y="227.557" width="19.9623" height="19.9623" rx="9.98117" transform="rotate(-15 276.086 227.557)" fill="#75B5A0" stroke="#75B5A0" stroke-width="6"/>
<rect x="263.291" y="308.353" width="131.547" height="19.9623" rx="9.98117" transform="rotate(-15 263.291 308.353)" fill="#75B5A0" stroke="#75B5A0" stroke-width="6"/>
<rect x="273.094" y="344.939" width="131.547" height="19.9623" rx="9.98117" transform="rotate(-15 273.094 344.939)" fill="#75B5A0" stroke="#75B5A0" stroke-width="6"/>
<rect x="282.632" y="380.537" width="131.547" height="19.9623" rx="9.98117" transform="rotate(-15 282.632 380.537)" fill="#75B5A0" stroke="#75B5A0" stroke-width="6"/>
<path d="M551.128 168.531L653.62 195.994C660.681 197.885 666.865 199.861 672.166 202.399C700.96 214.74 704.1 235.364 690.619 285.675L666.689 374.983C653.208 425.294 640.177 441.585 609.07 437.876C603.21 437.423 596.867 436.042 589.807 434.15L487.314 406.687C480.253 404.795 474.069 402.819 468.768 400.282C439.974 387.94 436.834 367.317 450.315 317.006L474.245 227.697C487.726 177.387 500.757 161.096 531.864 164.805C537.724 165.258 544.067 166.639 551.128 168.531Z" fill="#FEEED4" stroke="#282F34" stroke-width="6"/>
<rect x="517.875" y="241.748" width="131.547" height="19.9623" rx="9.98117" transform="rotate(15 517.875 241.748)" fill="#75B5A0" stroke="#75B5A0" stroke-width="6"/>
<rect x="527.678" y="205.161" width="19.9623" height="19.9623" rx="9.98117" transform="rotate(15 527.678 205.161)" fill="#75B5A0" stroke="#282F34" stroke-width="6"/>
<rect x="559.816" y="213.772" width="19.9623" height="19.9623" rx="9.98117" transform="rotate(15 559.816 213.772)" fill="#75B5A0" stroke="#75B5A0" stroke-width="6"/>
<rect x="508.337" y="277.346" width="131.547" height="19.9623" rx="9.98117" transform="rotate(15 508.337 277.346)" fill="#75B5A0" stroke="#75B5A0" stroke-width="6"/>
<rect x="498.534" y="313.933" width="131.547" height="19.9623" rx="9.98117" transform="rotate(15 498.534 313.933)" fill="#75B5A0" stroke="#75B5A0" stroke-width="6"/>
<rect x="488.995" y="349.53" width="131.547" height="19.9623" rx="9.98117" transform="rotate(15 488.995 349.53)" fill="#75B5A0" stroke="#75B5A0" stroke-width="6"/>
<path d="M396.6 151.126H502.709C510.018 151.126 516.503 151.434 522.28 152.513C553.287 156.982 561.658 176.09 561.658 228.175V320.634C561.658 372.72 553.287 391.828 522.28 396.297C516.503 397.376 510.018 397.684 502.709 397.684H396.6C389.29 397.684 382.806 397.376 377.029 396.297C346.022 391.828 337.651 372.72 337.651 320.634V228.175C337.651 176.09 346.022 156.982 377.029 152.513C382.806 151.434 389.29 151.126 396.6 151.126Z" fill="#FEEED4" stroke="#282F34" stroke-width="6"/>
<rect x="383.431" y="230.455" width="131.547" height="19.9623" rx="9.98117" fill="#75B5A0" stroke="#75B5A0" stroke-width="6"/>
<rect x="383.431" y="192.578" width="19.9623" height="19.9623" rx="9.98117" fill="#75B5A0" stroke="#75B5A0" stroke-width="6"/>
<rect x="416.702" y="192.578" width="19.9623" height="19.9623" rx="9.98117" fill="#75B5A0" stroke="#75B5A0" stroke-width="6"/>
<rect x="383.431" y="267.309" width="131.547" height="19.9623" rx="9.98117" fill="#75B5A0" stroke="#75B5A0" stroke-width="6"/>
<rect x="383.431" y="305.186" width="131.547" height="19.9623" rx="9.98117" fill="#75B5A0" stroke="#75B5A0" stroke-width="6"/>
<path d="M433.793 443.654H465.348C491.644 443.654 502.162 433.136 502.162 406.84V375.286C502.162 348.99 491.644 338.472 465.348 338.472H433.793C407.498 338.472 396.979 348.99 396.979 375.286V406.84C396.979 433.136 407.498 443.654 433.793 443.654Z" fill="#F0A722" stroke="#282F34" stroke-width="6"/>
<path d="M429.243 390.74H469.897" stroke="white" stroke-width="12" stroke-linecap="round" stroke-linejoin="round"/>
<path d="M449.247 411.39V370.736" stroke="white" stroke-width="12" stroke-linecap="round" stroke-linejoin="round"/>
</svg>
