<svg width="900" height="600" viewBox="0 0 900 600" fill="none" xmlns="http://www.w3.org/2000/svg">
<rect width="900" height="600" rx="24" fill="#666AF6"/>
<rect x="251.254" y="181.544" width="400.439" height="173.549" rx="4" fill="white" stroke="#282F34" stroke-width="6"/>
<path d="M251.254 372.372H252.055H651.693" stroke="#282F34" stroke-width="6" stroke-linecap="round" stroke-linejoin="round"/>
<line x1="252.779" y1="294.563" x2="330.465" y2="319.759" stroke="#282F34" stroke-width="6" stroke-linecap="round" stroke-linejoin="round"/>
<line x1="412.054" y1="294.563" x2="489.74" y2="319.759" stroke="#282F34" stroke-width="6" stroke-linecap="round" stroke-linejoin="round"/>
<line x1="3" y1="-3" x2="84.6698" y2="-3" transform="matrix(-0.951223 0.308505 0.308505 0.951223 413.533 296.491)" stroke="#282F34" stroke-width="6" stroke-linecap="round" stroke-linejoin="round"/>
<line x1="593.062" y1="220.346" x2="491.402" y2="320.564" stroke="#282F34" stroke-width="6" stroke-linecap="round" stroke-linejoin="round"/>
<rect x="309.104" y="293.486" width="41.3211" height="41.3211" rx="20.6606" fill="#666AF6" stroke="white" stroke-width="6"/>
<rect x="397.005" y="284.471" width="22.9751" height="22.9751" rx="11.4875" fill="#666AF6" stroke="white" stroke-width="6"/>
<rect x="473.637" y="301.751" width="30.803" height="30.803" rx="15.4015" fill="#666AF6" stroke="white" stroke-width="6"/>
<rect x="526.979" y="253.668" width="30.803" height="30.803" rx="15.4015" fill="#666AF6" stroke="white" stroke-width="6"/>
<rect x="575.812" y="198.823" width="39.8185" height="39.8185" rx="19.9093" fill="#666AF6" stroke="white" stroke-width="6"/>
<path d="M285.062 396.413L285.062 396.365L285.062 372.372" stroke="#282F34" stroke-width="6" stroke-linecap="round" stroke-linejoin="round"/>
<path d="M319.621 396.413L319.621 396.365L319.621 372.372" stroke="#282F34" stroke-width="6" stroke-linecap="round" stroke-linejoin="round"/>
<path d="M354.181 396.413L354.181 396.365L354.181 372.372" stroke="#282F34" stroke-width="6" stroke-linecap="round" stroke-linejoin="round"/>
<path d="M388.74 396.413L388.74 396.365L388.74 372.372" stroke="#282F34" stroke-width="6" stroke-linecap="round" stroke-linejoin="round"/>
<path d="M423.299 396.413L423.299 396.365L423.299 372.372" stroke="#282F34" stroke-width="6" stroke-linecap="round" stroke-linejoin="round"/>
<path d="M457.859 396.413L457.859 396.365L457.859 372.372" stroke="#282F34" stroke-width="6" stroke-linecap="round" stroke-linejoin="round"/>
<path d="M492.418 396.413L492.418 396.365L492.418 372.372" stroke="#282F34" stroke-width="6" stroke-linecap="round" stroke-linejoin="round"/>
<path d="M526.978 396.413L526.978 396.365L526.978 372.372" stroke="#282F34" stroke-width="6" stroke-linecap="round" stroke-linejoin="round"/>
<path d="M561.538 396.413L561.538 396.365L561.538 372.372" stroke="#282F34" stroke-width="6" stroke-linecap="round" stroke-linejoin="round"/>
<path d="M596.097 396.413L596.097 396.365L596.097 372.372" stroke="#282F34" stroke-width="6" stroke-linecap="round" stroke-linejoin="round"/>
<path d="M630.657 396.413L630.657 396.365L630.657 372.372" stroke="#282F34" stroke-width="6" stroke-linecap="round" stroke-linejoin="round"/>
<rect x="269.285" y="206.336" width="49.5854" height="18.031" rx="9.01552" fill="#666AF6" stroke="white" stroke-width="6"/>
<rect x="333.896" y="206.336" width="99.1707" height="18.031" rx="9.01552" fill="#666AF6" stroke="white" stroke-width="6"/>
<rect width="236.657" height="18.031" rx="9.01552" transform="matrix(-1 0 0 1 485.657 417.45)" fill="#FFB200" stroke="#282F34" stroke-width="6"/>
<rect x="407.201" y="454.612" width="93.4824" height="17.9774" rx="8.98869" fill="#F57337" stroke="#282F34" stroke-width="6"/>
<rect x="515.784" y="454.612" width="93.4824" height="17.9774" rx="8.98869" fill="#FFB200" stroke="#282F34" stroke-width="6"/>
<rect x="292.146" y="454.612" width="99.9542" height="17.9774" rx="8.98869" fill="#FFC18F" stroke="#282F34" stroke-width="6"/>
<rect width="150.291" height="17.9774" rx="8.98869" transform="matrix(-1 0 0 1 651.693 417.22)" fill="#00AAD3" stroke="#282F34" stroke-width="6"/>
<rect x="529.522" y="146.984" width="122.461" height="18.031" rx="9.01552" fill="#FFB200" stroke="#282F34" stroke-width="6"/>
<rect x="458.15" y="146.984" width="49.5854" height="18.031" rx="9.01552" fill="#FFC18F" stroke="#282F34" stroke-width="6"/>
<path d="M251.158 152.735H268.928" stroke="white" stroke-width="12" stroke-linecap="round" stroke-linejoin="round"/>
<path d="M260.043 161.62V143.85" stroke="white" stroke-width="12" stroke-linecap="round" stroke-linejoin="round"/>
<path d="M290.246 135.886H308.016" stroke="white" stroke-width="12" stroke-linecap="round" stroke-linejoin="round"/>
<path d="M299.261 144.77V127" stroke="white" stroke-width="12" stroke-linecap="round" stroke-linejoin="round"/>
<path d="M330.043 152.735H347.813" stroke="white" stroke-width="12" stroke-linecap="round" stroke-linejoin="round"/>
<path d="M339.058 161.62V143.85" stroke="white" stroke-width="12" stroke-linecap="round" stroke-linejoin="round"/>
</svg>
