<svg viewBox="0 0 128 128" height="128" width="128" xmlns="http://www.w3.org/2000/svg"><g transform="matrix(1.28,0,0,1.28,0,0)"><path d="M10.000 51.341 A40.000 40.000 0 1 0 90.000 51.341 A40.000 40.000 0 1 0 10.000 51.341 Z" fill="#e8f4fa" stroke="#daedf7"></path><path d="M46.648,25.809a8.791,8.791,0,0,0-12.343,1.445c-1.134,1.436-1.953,4.179-2.529,6.95-1.2-2.563-2.63-5.044-4.065-6.178a8.787,8.787,0,0,0-10.9,13.788c3.3,2.61,13.849,2.685,15.935,2.673l.229-.014.232-.04c2.026-.469,12.275-2.981,14.883-6.281a8.8,8.8,0,0,0-1.445-12.343ZM19.431,38.5a4.567,4.567,0,0,1,5.663-7.166c1.116.883,2.885,4.3,4.621,8.874C24.677,40.012,20.476,39.328,19.431,38.5Zm25.35-2.968c-.826,1.044-4.756,2.68-9.613,4.037.551-4.159,1.462-8.451,2.448-9.7a4.573,4.573,0,0,1,6.414-.751A4.575,4.575,0,0,1,44.781,35.535Z" fill="#ffffff"></path><path d="M48.093,38.152a8.785,8.785,0,0,0-7.917-14.175q-.416.05-.82.135a5.291,5.291,0,0,0-.42,1.418l-.525,3.554a4.567,4.567,0,0,1,6.37,6.451c-.549.7-2.474,1.651-5.131,2.614l-.7,4.7C42.51,41.71,46.582,40.063,48.093,38.152Z" fill="#e0e0e0"></path><path d="M46.648,25.809a8.791,8.791,0,0,0-12.343,1.445c-1.134,1.436-1.953,4.179-2.529,6.95-1.2-2.563-2.63-5.044-4.065-6.178a8.787,8.787,0,0,0-10.9,13.788c3.3,2.61,13.849,2.685,15.935,2.673l.229-.014.232-.04c2.026-.469,12.275-2.981,14.883-6.281a8.8,8.8,0,0,0-1.445-12.343ZM19.431,38.5a4.567,4.567,0,0,1,5.663-7.166c1.116.883,2.885,4.3,4.621,8.874C24.677,40.012,20.476,39.328,19.431,38.5Zm25.35-2.968c-.826,1.044-4.756,2.68-9.613,4.037.551-4.159,1.462-8.451,2.448-9.7a4.573,4.573,0,0,1,6.414-.751A4.575,4.575,0,0,1,44.781,35.535Z" fill="none" stroke="#45413c" stroke-linecap="round" stroke-linejoin="round"></path><path d="M12.232 43.923 L54.546 43.923 L54.546 52.459 L12.232 52.459 Z" fill="#6dd627" transform="translate(-5.378 4.21) rotate(-6.678)"></path><path d="M52.861,72.893,20.2,76.717a1.906,1.906,0,0,1-2.116-1.672l-2.4-20.485,36.45-4.267,2.4,20.484A1.906,1.906,0,0,1,52.861,72.893Z" fill="#6dd627"></path><path d="M52.135,50.293,37.993,51.949a5.03,5.03,0,0,0,4.141,3.76l10.822,1.6Z" fill="#46b000"></path><path d="M15.873 52.408H52.571V57.776H15.873z" fill="#46b000" transform="translate(-6.175 4.354) rotate(-6.678)"></path><path d="M52.861,72.893,20.2,76.717a1.906,1.906,0,0,1-2.116-1.672l-2.4-20.485,36.45-4.267,2.4,20.484A1.906,1.906,0,0,1,52.861,72.893Z" fill="none" stroke="#45413c" stroke-linecap="round" stroke-linejoin="round"></path><path d="M54.292,44.783,12.265,49.7l-.14-1.2a2.11,2.11,0,0,1,1.851-2.342l37.834-4.43a2.111,2.111,0,0,1,2.342,1.851Z" fill="#9ceb60"></path><path d="M54.654,47.873l-.5-4.285a2.111,2.111,0,0,0-2.342-1.851L37.1,43.459l.993,8.478L52.8,50.214A2.11,2.11,0,0,0,54.654,47.873Z" fill="#46b000"></path><path d="M12.232 43.923 L54.546 43.923 L54.546 52.459 L12.232 52.459 Z" fill="none" stroke="#45413c" stroke-linecap="round" stroke-linejoin="round" transform="translate(-5.378 4.21) rotate(-6.678)"></path><path d="M29.204 43.92H37.624V52.456H29.204z" fill="#ffffff" transform="translate(-5.377 4.213) rotate(-6.678)"></path><path d="M31.01 52.35H39.43V74.881H31.01z" fill="#ffffff" transform="translate(-7.159 4.528) rotate(-6.678)"></path><path d="M30.012 52.408H38.432V57.776H30.012z" fill="#daedf7" transform="translate(-6.175 4.354) rotate(-6.678)"></path><path d="M31.01 52.35H39.43V74.881H31.01z" fill="none" stroke="#45413c" stroke-linecap="round" stroke-linejoin="round" transform="translate(-7.159 4.528) rotate(-6.678)"></path><path d="M28.9 43.938H37.32V47.252H28.9z" fill="#daedf7" transform="translate(-5.078 4.16) rotate(-6.678)"></path><path d="M29.204 43.92H37.624V52.456H29.204z" fill="none" stroke="#45413c" stroke-linecap="round" stroke-linejoin="round" transform="translate(-5.377 4.213) rotate(-6.678)"></path><path d="M34.688 85.343 A15.538 1.902 0 1 0 65.764 85.343 A15.538 1.902 0 1 0 34.688 85.343 Z" fill="#45413c" opacity=".15"></path><path d="M77.552,14.366a7.922,7.922,0,0,0-11.073-1.637c-1.323.983-2.678,3.177-3.828,5.452-.443-2.51-1.105-5-2.087-6.326a7.914,7.914,0,0,0-12.709,9.436c2.258,3.043,11.414,5.582,13.232,6.06l.2.042.211.019c1.872.067,11.373.285,14.415-1.973a7.924,7.924,0,0,0,1.637-11.073ZM50.908,19.025a4.113,4.113,0,0,1,6.6-4.9c.763,1.03,1.5,4.413,1.938,8.8C55.116,21.567,51.623,19.988,50.908,19.025Zm22.741,3.362c-.964.714-4.765,1.215-9.307,1.257,1.454-3.488,3.253-7.007,4.4-7.862a4.119,4.119,0,0,1,5.753.85A4.121,4.121,0,0,1,73.649,22.387Z" fill="#ffffff" stroke="#45413c" stroke-linecap="round" stroke-linejoin="round"></path><path d="M56.931 11.666 L64.619 11.666 L64.619 49.777 L56.931 49.777 Z" fill="#ff6242" transform="translate(21.496 86.351) rotate(-81.591)"></path><path d="M71.917,56.768l-29.3-4.331a1.717,1.717,0,0,1-1.448-1.95l2.716-18.376,32.7,4.833L73.867,55.32A1.717,1.717,0,0,1,71.917,56.768Z" fill="#ff6242"></path><path d="M61.925,55.291l9.992,1.477a1.717,1.717,0,0,0,1.95-1.448l1.25-8.452A19.7,19.7,0,0,0,61.925,55.291Z" fill="#e04122"></path><path d="M57.464 20.393H62.299V53.446H57.464z" fill="#e04122" transform="translate(14.602 90.758) rotate(-81.591)"></path><path d="M71.917,56.768l-29.3-4.331a1.717,1.717,0,0,1-1.448-1.95l2.716-18.376,32.7,4.833L73.867,55.32A1.717,1.717,0,0,1,71.917,56.768Z" fill="none" stroke="#45413c" stroke-linecap="round" stroke-linejoin="round"></path><path d="M79.751,32.659l-37.7-5.573.158-1.072a1.9,1.9,0,0,1,2.159-1.6l33.94,5.017a1.9,1.9,0,0,1,1.6,2.159Z" fill="#ff866e"></path><path d="M56.931 11.666 L64.619 11.666 L64.619 49.777 L56.931 49.777 Z" fill="none" stroke="#45413c" stroke-linecap="round" stroke-linejoin="round" transform="translate(21.496 86.351) rotate(-81.591)"></path><path d="M56.953 26.933H64.641V34.516999999999996H56.953z" fill="#ffffff" transform="translate(21.512 86.376) rotate(-81.591)"></path><path d="M48.604 40.774H68.89699999999999V48.358000000000004H48.604z" fill="#ffffff" transform="translate(6.074 96.168) rotate(-81.591)"></path><path d="M57.464 33.128H62.299V40.712H57.464z" fill="#daedf7" transform="translate(14.602 90.758) rotate(-81.591)"></path><path d="M48.604 40.774H68.89699999999999V48.358000000000004H48.604z" fill="none" stroke="#45413c" stroke-linecap="round" stroke-linejoin="round" transform="translate(6.074 96.168) rotate(-81.591)"></path><path d="M59.648 24.607H62.633V32.191H59.648z" fill="#daedf7" transform="translate(24.106 84.73) rotate(-81.591)"></path><path d="M56.953 26.933H64.641V34.516999999999996H56.953z" fill="none" stroke="#45413c" stroke-linecap="round" stroke-linejoin="round" transform="translate(21.512 86.376) rotate(-81.591)"></path><path d="M48.207 61.083 A17.640 17.640 0 1 0 83.487 61.083 A17.640 17.640 0 1 0 48.207 61.083 Z" fill="#ffe500"></path><path d="M53.374,73.557A17.64,17.64,0,0,1,78.321,48.61Z" fill="#ffffff48c"></path><path d="M51.961 61.083 A13.886 13.886 0 1 0 79.733 61.083 A13.886 13.886 0 1 0 51.961 61.083 Z" fill="none" stroke="#ebcb00" stroke-linecap="round" stroke-linejoin="round"></path><path d="M48.207 61.083 A17.640 17.640 0 1 0 83.487 61.083 A17.640 17.640 0 1 0 48.207 61.083 Z" fill="none" stroke="#45413c" stroke-linecap="round" stroke-linejoin="round"></path><path d="M57.09,59.539a3.882,3.882,0,0,1,.946-.126,2.686,2.686,0,0,1,2.65,2.99,3.271,3.271,0,0,1-3.331,3.319c-1.313,0-2.928-.707-2.928-1.678a.932.932,0,0,1,.871-1.023c.707,0,1.073.732,1.994.732.72,0,1.2-.517,1.2-1.476a1.085,1.085,0,0,0-1.01-1.2c-.82,0-.87.455-1.539.455a.731.731,0,0,1-.82-.745,7.7,7.7,0,0,1,.063-.946l.316-2.46c.1-.77.554-.846,1.084-.846h3.079a.947.947,0,1,1,0,1.893H57.229Z" fill="#45413c"></path><path d="M64.683,56.335c2.587,0,3.76,2.333,3.76,4.693s-1.173,4.694-3.76,4.694-3.76-2.335-3.76-4.694S62.1,56.335,64.683,56.335Zm0,7.418c1.274,0,1.64-1.6,1.64-2.725s-.366-2.725-1.64-2.725-1.64,1.6-1.64,2.725S63.409,63.753,64.683,63.753Z" fill="#45413c"></path><path d="M70.836,56.335a2.032,2.032,0,0,1,0,4.062,2.032,2.032,0,0,1,0-4.062ZM74.445,57c.214-.378.416-.668.781-.668a.722.722,0,0,1,.745.706,1.992,1.992,0,0,1-.391.933L71.5,65.053c-.214.378-.415.669-.781.669a.722.722,0,0,1-.745-.707,2.009,2.009,0,0,1,.391-.934Zm-3.609,1.956a.6.6,0,1,0-.53-.593A.549.549,0,0,0,70.836,58.959Zm4.277,2.7a2.033,2.033,0,0,1,0,4.063,2.033,2.033,0,0,1,0-4.063Zm0,2.624a.6.6,0,1,0-.529-.593A.548.548,0,0,0,75.113,64.283Z" fill="#45413c"></path></g></svg>