<svg width="57" height="56" viewBox="0 0 57 56" fill="none" xmlns="http://www.w3.org/2000/svg">
<path d="M4.5351 28C4.5351 14.7452 15.2803 4 28.5351 4C41.7899 4 52.5351 14.7452 52.5351 28C52.5351 41.2548 41.7899 52 28.5351 52C15.2803 52 4.5351 41.2548 4.5351 28Z" fill="white"/>
<path d="M24.5351 30C24.5351 30 26.0351 32 28.5351 32C31.0351 32 32.5351 30 32.5351 30M25.5351 25H25.5451M31.5351 25H31.5451M38.5351 28C38.5351 33.5228 34.0579 38 28.5351 38C23.0122 38 18.5351 33.5228 18.5351 28C18.5351 22.4772 23.0122 18 28.5351 18C34.0579 18 38.5351 22.4772 38.5351 28Z" stroke="#10B981" stroke-width="2" stroke-linecap="round" stroke-linejoin="round"/>
<path d="M28.5351 48C17.4894 48 8.5351 39.0457 8.5351 28H0.535095C0.535095 43.464 13.0711 56 28.5351 56V48ZM48.5351 28C48.5351 39.0457 39.5808 48 28.5351 48V56C43.9991 56 56.5351 43.464 56.5351 28H48.5351ZM28.5351 8C39.5808 8 48.5351 16.9543 48.5351 28H56.5351C56.5351 12.536 43.9991 0 28.5351 0V8ZM28.5351 0C13.0711 0 0.535095 12.536 0.535095 28H8.5351C8.5351 16.9543 17.4894 8 28.5351 8V0Z" fill="#D1FAE5"/>
</svg>
