<svg viewBox="0 0 128 128" height="128" width="128" xmlns="http://www.w3.org/2000/svg"><g transform="matrix(1.28,0,0,1.28,0,0)"><path d="M88.675,50A40,40,0,1,0,12.239,66.5H85.111A39.829,39.829,0,0,0,88.675,50Z" fill="#c7f0ff"></path><path d="M12.239,66.5a40,40,0,0,0,72.872,0Z" fill="#f7eca3"></path><path d="M9.675 66.5L87.675 66.5" fill="none" stroke="#45413c" stroke-linecap="round" stroke-linejoin="round"></path><path d="M5.175 66.5L7.675 66.5" fill="none" stroke="#45413c" stroke-linecap="round" stroke-linejoin="round"></path><path d="M89.675 66.5L92.175 66.5" fill="none" stroke="#45413c" stroke-linecap="round" stroke-linejoin="round"></path><path d="M23.525 81.976 A9.775 1.725 0 1 0 43.075 81.976 A9.775 1.725 0 1 0 23.525 81.976 Z" fill="#45413c" opacity=".15"></path><path d="M29.275 80.251 A32.775 1.725 0 1 0 94.825 80.251 A32.775 1.725 0 1 0 29.275 80.251 Z" fill="#45413c" opacity=".15"></path><path d="M22.472,39.476a.823.823,0,0,0,1.36-.594c.159-4.37-.08-15.663-6.411-19.692-2.174-1.384-4.691.818-5.975,2.221a.822.822,0,0,0,.409,1.346l2.513.649a.823.823,0,0,1,.4,1.358l-.671.72a.823.823,0,0,0,.22,1.29L16.643,28a.824.824,0,0,1,.346,1.112l-1.321,2.514a.822.822,0,0,0,.387,1.131l3.176,1.45a.824.824,0,0,1,.287,1.281l-.422.5a.825.825,0,0,0,.234,1.254A19.412,19.412,0,0,1,22.472,39.476Z" fill="#6dd627"></path><path d="M15.961,21.659c-1.515-.964-3.2-.186-4.511.849a.813.813,0,0,1,0-1.1c1.284-1.4,3.8-3.605,5.975-2.221,6.331,4.029,6.57,15.322,6.411,19.692a.823.823,0,0,1-1.36.594c-.024-.021-.046-.037-.07-.057C22.376,34.275,21.5,25.186,15.961,21.659Z" fill="#9ceb60"></path><path d="M22.472,39.476a.823.823,0,0,0,1.36-.594c.159-4.37-.08-15.663-6.411-19.692-2.174-1.384-4.691.818-5.975,2.221a.822.822,0,0,0,.409,1.346l2.513.649a.823.823,0,0,1,.4,1.358l-.671.72a.823.823,0,0,0,.22,1.29L16.643,28a.824.824,0,0,1,.346,1.112l-1.321,2.514a.822.822,0,0,0,.387,1.131l3.176,1.45a.824.824,0,0,1,.287,1.281l-.422.5a.825.825,0,0,0,.234,1.254A19.412,19.412,0,0,1,22.472,39.476Z" fill="none" stroke="#45413c" stroke-linecap="round" stroke-linejoin="round"></path><path d="M24.094,40.14a.823.823,0,0,1-.758-1.276c2.422-3.641,9.209-12.67,16.7-12.246,2.573.145,3.332,3.4,3.555,5.291a.821.821,0,0,1-1.118.854l-2.418-.94a.823.823,0,0,0-1.115.872l.124.976a.823.823,0,0,1-.931.919l-2.607-.366a.824.824,0,0,0-.93.7l-.4,2.812a.824.824,0,0,1-.975.693L29.8,37.753a.823.823,0,0,0-.98.872l.052.652a.825.825,0,0,1-.923.881A19.463,19.463,0,0,0,24.094,40.14Z" fill="#6dd627"></path><path d="M39.786,29.055c-6.78-.383-12.981,6.973-15.894,11.074a.821.821,0,0,1-.556-1.265c2.422-3.64,9.209-12.67,16.7-12.246,2.572.145,3.331,3.4,3.554,5.291a.811.811,0,0,1-.534.857C42.632,31.04,41.724,29.165,39.786,29.055Z" fill="#9ceb60"></path><path d="M24.094,40.14a.823.823,0,0,1-.758-1.276c2.422-3.641,9.209-12.67,16.7-12.246,2.573.145,3.332,3.4,3.555,5.291a.821.821,0,0,1-1.118.854l-2.418-.94a.823.823,0,0,0-1.115.872l.124.976a.823.823,0,0,1-.931.919l-2.607-.366a.824.824,0,0,0-.93.7l-.4,2.812a.824.824,0,0,1-.975.693L29.8,37.753a.823.823,0,0,0-.98.872l.052.652a.825.825,0,0,1-.923.881A19.463,19.463,0,0,0,24.094,40.14Z" fill="none" stroke="#45413c" stroke-linecap="round" stroke-linejoin="round"></path><path d="M22.573,41.26S37,33.273,44.765,38.545c2.132,1.447,1.109,4.63.33,6.366a.822.822,0,0,1-1.4.158l-1.592-2.05a.823.823,0,0,0-1.4.175l-.4.9a.823.823,0,0,1-1.271.31l-2.048-1.653a.823.823,0,0,0-1.158.123l-1.784,2.209a.822.822,0,0,1-1.192.093l-2.591-2.34a.823.823,0,0,0-1.289.244l-.29.585a.825.825,0,0,1-1.245.283A20.7,20.7,0,0,0,22.573,41.26Z" fill="#6dd627"></path><path d="M44.916,41.053c-5.762-3.91-15.178-.529-19.662,1.48a23.2,23.2,0,0,0-2.681-1.273S37,33.273,44.765,38.545c1.275.865,1.417,2.351,1.162,3.778A2.712,2.712,0,0,0,44.916,41.053Z" fill="#9ceb60"></path><path d="M20.829,41.015a.822.822,0,0,0,.982-1.106c-1.513-3.573-5.657-11.853-11.836-12.7C7.9,26.923,6.75,29.272,6.22,30.825A.823.823,0,0,0,7.147,31.9l1.76-.316a.822.822,0,0,1,.927,1.069l-.146.443a.823.823,0,0,0,.738,1.08l1.948.1a.823.823,0,0,1,.778.866L13.037,37.3a.824.824,0,0,0,.824.867l2.673-.006a.823.823,0,0,1,.8,1.044l-.065.235a.818.818,0,0,0,.712,1.039A16.376,16.376,0,0,1,20.829,41.015Z" fill="#6dd627"></path><path d="M20.943,41.029c-1.9-3.991-5.738-10.4-11.135-11.141-1.4-.193-2.386.826-3.039,1.986a.817.817,0,0,1-.549-1.049c.53-1.553,1.684-3.9,3.755-3.618,6.179.849,10.322,9.129,11.836,12.7A.816.816,0,0,1,20.943,41.029Z" fill="#9ceb60"></path><path d="M22.573,41.26S37,33.273,44.765,38.545c2.132,1.447,1.109,4.63.33,6.366a.822.822,0,0,1-1.4.158l-1.592-2.05a.823.823,0,0,0-1.4.175l-.4.9a.823.823,0,0,1-1.271.31l-2.048-1.653a.823.823,0,0,0-1.158.123l-1.784,2.209a.822.822,0,0,1-1.192.093l-2.591-2.34a.823.823,0,0,0-1.289.244l-.29.585a.825.825,0,0,1-1.245.283A20.7,20.7,0,0,0,22.573,41.26Z" fill="none" stroke="#45413c" stroke-linecap="round" stroke-linejoin="round"></path><path d="M20.829,41.015a.822.822,0,0,0,.982-1.106c-1.513-3.573-5.657-11.853-11.836-12.7C7.9,26.923,6.75,29.272,6.22,30.825A.823.823,0,0,0,7.147,31.9l1.76-.316a.822.822,0,0,1,.927,1.069l-.146.443a.823.823,0,0,0,.738,1.08l1.948.1a.823.823,0,0,1,.778.866L13.037,37.3a.824.824,0,0,0,.824.867l2.673-.006a.823.823,0,0,1,.8,1.044l-.065.235a.818.818,0,0,0,.712,1.039A16.376,16.376,0,0,1,20.829,41.015Z" fill="none" stroke="#45413c" stroke-linecap="round" stroke-linejoin="round"></path><path d="M9.774,66.5C8.127,50.446,21.3,39.332,21.3,39.332l2.47,2.469s-7.821,11.526-5.763,24.7Z" fill="#bf8256"></path><path d="M19.826,43.808a4.1,4.1,0,0,1-1.969-.893A31.959,31.959,0,0,1,21.3,39.332l2.47,2.469a34.01,34.01,0,0,0-2.307,4.218A4.127,4.127,0,0,1,19.826,43.808Z" fill="#915e3a"></path><path d="M21.3,39.332l1.281,1.281C20.232,42.8,10.512,52.763,11.5,66.5H9.774C8.127,50.446,21.3,39.332,21.3,39.332Z" fill="#dea47a"></path><path d="M9.774,66.5C8.127,50.446,21.3,39.332,21.3,39.332l2.47,2.469s-7.821,11.526-5.763,24.7Z" fill="none" stroke="#45413c" stroke-linecap="round" stroke-linejoin="round"></path><path d="M19.264,51.725a25.248,25.248,0,0,1-5.532-2.86" fill="none" stroke="#45413c" stroke-linecap="round" stroke-linejoin="round"></path><path d="M16.077,45.2a26.171,26.171,0,0,0,4.491,2.86" fill="none" stroke="#45413c" stroke-linecap="round" stroke-linejoin="round"></path><path d="M17.7,60.5a23.086,23.086,0,0,1-7.688-1.293" fill="none" stroke="#45413c" stroke-linecap="round" stroke-linejoin="round"></path><path d="M11.687,53.167a24.185,24.185,0,0,0,6.583,2.577" fill="none" stroke="#45413c" stroke-linecap="round" stroke-linejoin="round"></path><path d="M9.648,64.347a22.459,22.459,0,0,0,8.163.581" fill="none" stroke="#45413c" stroke-linecap="round" stroke-linejoin="round"></path><path d="M18.006,39.743a2.47,2.47,0,1,0,2.47-2.47A2.47,2.47,0,0,0,18.006,39.743Z" fill="#b89558"></path><path d="M20.476,38.508a2.465,2.465,0,0,0-2.383,1.853,2.466,2.466,0,1,1,4.853-.618,2.427,2.427,0,0,1-.088.618A2.463,2.463,0,0,0,20.476,38.508Z" fill="#debb7e"></path><path d="M18.006,39.743a2.47,2.47,0,1,0,2.47-2.47A2.47,2.47,0,0,0,18.006,39.743Z" fill="none" stroke="#45413c" stroke-linecap="round" stroke-linejoin="round"></path><path d="M21.3,42.625a2.47,2.47,0,1,0,2.47-2.47A2.469,2.469,0,0,0,21.3,42.625Z" fill="#b89558"></path><path d="M23.769,41.8a2.464,2.464,0,0,0-2.319,1.647,2.466,2.466,0,1,1,4.789-.823,2.471,2.471,0,0,1-.151.823A2.464,2.464,0,0,0,23.769,41.8Z" fill="#debb7e"></path><path d="M21.3,42.625a2.47,2.47,0,1,0,2.47-2.47A2.469,2.469,0,0,0,21.3,42.625Z" fill="none" stroke="#45413c" stroke-linecap="round" stroke-linejoin="round"></path><path d="M41.925,66.451h13.8v-4.6h-13.8a2.3,2.3,0,0,0-2.3,2.3h0A2.3,2.3,0,0,0,41.925,66.451Z" fill="#ffda8f" stroke="#45413c" stroke-linecap="round" stroke-linejoin="round"></path><path d="M55.15,66.451h11.5A3.45,3.45,0,0,0,70.1,63v-3.45H55.15Z" fill="#ff87af" stroke="#45413c" stroke-linecap="round" stroke-linejoin="round"></path><path d="M47.675,66.451h13.8v-4.6h-13.8a2.3,2.3,0,0,0-2.3,2.3h0A2.3,2.3,0,0,0,47.675,66.451Z" fill="#ffda8f" stroke="#45413c" stroke-linecap="round" stroke-linejoin="round"></path><path d="M66.207,41.426a.9.9,0,0,1-.667-.86V38.508H61.125v2.057a.9.9,0,0,1-.667.86,10.216,10.216,0,0,0-7.345,9.8v5.679a2.662,2.662,0,0,0,2.662,2.662H69.549a4,4,0,0,0,4-4V51.226A10.216,10.216,0,0,0,66.207,41.426Z" fill="#ffda8f"></path><path d="M60.484,41.411a10.223,10.223,0,0,0-7.37,9.815v2.7a10.219,10.219,0,0,1,6.137-9.37,2.388,2.388,0,0,0,1.236-3.14Z" fill="#ffe9bd"></path><path d="M66.182,41.412a2.378,2.378,0,0,0,1.225,3.145,10.22,10.22,0,0,1,6.142,9.373v-2.7A10.222,10.222,0,0,0,66.182,41.412Z" fill="#ffe9bd"></path><path d="M69.508,53.346V49.762a2.54,2.54,0,0,0-2.7-2.091,6.6,6.6,0,0,0-3.74.988A6.264,6.264,0,0,0,59.5,47.67a3.513,3.513,0,0,0-3.133,2.006l.1,3.438a10.931,10.931,0,0,0,2.981.892c1.466.084,2.978-.244,3.631-1.186C63.579,53.552,65.193,54,66.62,54A8.207,8.207,0,0,0,69.508,53.346Z" fill="#ff87af" stroke="#45413c" stroke-linecap="round" stroke-linejoin="round"></path><path d="M58.598 47.781L58.598 42.123" fill="none" stroke="#45413c" stroke-linecap="round" stroke-linejoin="round"></path><path d="M68.047 47.9L68.047 42.123" fill="none" stroke="#45413c" stroke-linecap="round" stroke-linejoin="round"></path><path d="M66.207,41.426a.9.9,0,0,1-.667-.86V38.508H61.125v2.057a.9.9,0,0,1-.667.86,10.216,10.216,0,0,0-7.345,9.8v5.679a2.662,2.662,0,0,0,2.662,2.662H69.549a4,4,0,0,0,4-4V51.226A10.216,10.216,0,0,0,66.207,41.426Z" fill="none" stroke="#45413c" stroke-linecap="round" stroke-linejoin="round" stroke-width="1.009"></path><path d="M61.761,59.567a1.866,1.866,0,0,1-1.871-1.492,1.8,1.8,0,0,1,1.77-2.1h5.8a2.052,2.052,0,0,0,2.052-2.051v-4.1" fill="none" stroke="#45413c" stroke-linecap="round" stroke-linejoin="round"></path><path d="M66.982 36.937 A3.560 3.560 0 1 0 74.102 36.937 A3.560 3.560 0 1 0 66.982 36.937 Z" fill="#614b44" stroke="#45413c" stroke-linecap="round" stroke-linejoin="round"></path><path d="M63.479,22.616a7.139,7.139,0,0,1,7.106,7.173l-.006,1.428c2.038.01,1.882,3.579-.374,3.568H70.2a7.12,7.12,0,0,1-13.906-2.206l.013-2.856A7.14,7.14,0,0,1,63.479,22.616Z" fill="#ffda8f" stroke="#45413c" stroke-linecap="round" stroke-linejoin="round"></path><path d="M65.6,33.751a.714.714,0,1,0,.717-.71A.713.713,0,0,0,65.6,33.751Z" fill="#ffbe3d"></path><path d="M63.805,35.6a3.462,3.462,0,0,1-3.569-.017" fill="none" stroke="#45413c" stroke-linecap="round" stroke-linejoin="round"></path><path d="M65.439,31.454a1.009,1.009,0,0,0-1.428-.006" fill="none" stroke="#45413c" stroke-linecap="round" stroke-linejoin="round"></path><path d="M60.1,31.429a1.008,1.008,0,0,0-1.427-.006" fill="none" stroke="#45413c" stroke-linecap="round" stroke-linejoin="round"></path><path d="M63.589,20.333a7.675,7.675,0,0,1,1.162.1A7.835,7.835,0,0,1,71.384,28.2l-.017,3.489s-5.567-2.014-5.549-5.86a39.1,39.1,0,0,0-10.109,4.679l.011-2.382A7.832,7.832,0,0,1,63.589,20.333Z" fill="#614b44"></path><path d="M70.54,24.639a7.828,7.828,0,0,0-5.79-4.2,7.651,7.651,0,0,0-1.161-.1,7.831,7.831,0,0,0-7.869,7.794l-.011,2.382.082-.053a7.828,7.828,0,0,1,7.782-6.724,7.916,7.916,0,0,1,1.161.1A7.837,7.837,0,0,1,71.368,31.6l.016-3.4A7.793,7.793,0,0,0,70.54,24.639Z" fill="#947063"></path><path d="M63.589,20.333a7.675,7.675,0,0,1,1.162.1A7.835,7.835,0,0,1,71.384,28.2l-.017,3.489s-5.567-2.014-5.549-5.86a39.1,39.1,0,0,0-10.109,4.679l.011-2.382A7.832,7.832,0,0,1,63.589,20.333Z" fill="none" stroke="#45413c" stroke-linecap="round" stroke-linejoin="round"></path><path d="M43.925,59.551H59.45L57.725,49.2a1.15,1.15,0,0,0-1.15-1.15H42.2a1.15,1.15,0,0,0-1.15,1.15l1.725,9.2A1.15,1.15,0,0,0,43.925,59.551Z" fill="#c0dceb"></path><path d="M57.821,49.776l-.1-.575a1.15,1.15,0,0,0-1.15-1.15H42.2a1.15,1.15,0,0,0-1.15,1.15l.108.575Z" fill="#daedf7"></path><path d="M43.925,61.851H59.45v-2.3H42.775V60.7A1.15,1.15,0,0,0,43.925,61.851Z" fill="#c0dceb" stroke="#45413c" stroke-linecap="round" stroke-linejoin="round"></path><path d="M43.925,59.551H59.45L57.725,49.2a1.15,1.15,0,0,0-1.15-1.15H42.2a1.15,1.15,0,0,0-1.15,1.15l1.725,9.2A1.15,1.15,0,0,0,43.925,59.551Z" fill="none" stroke="#45413c" stroke-linecap="round" stroke-linejoin="round"></path><path d="M48.525 54.376 A1.725 1.725 0 1 0 51.975 54.376 A1.725 1.725 0 1 0 48.525 54.376 Z" fill="#ffe500" stroke="#45413c" stroke-linecap="round" stroke-linejoin="round"></path><path d="M49.1 50.351L50.25 51.501 50.25 52.651" fill="none" stroke="#45413c" stroke-linecap="round" stroke-linejoin="round"></path><path d="M67.5,59.551a2.3,2.3,0,0,1-2.3,2.3H59.45v-2.3Z" fill="#c0dceb" stroke="#45413c" stroke-linecap="round" stroke-linejoin="round"></path><path d="M92,59.5l-15,15-3.45-3.45,15-15a1.151,1.151,0,0,1,1.627,0L92,57.876A1.15,1.15,0,0,1,92,59.5Z" fill="#b89558" stroke="#45413c" stroke-linecap="round" stroke-linejoin="round"></path><path d="M33.875,75.652h3.45V78.1a1,1,0,0,1-1,1h-1.45a1,1,0,0,1-1-1Z" fill="#b89558"></path><path d="M33.875 75.652H37.325V77.377H33.875z" fill="#947746"></path><path d="M33.875,75.652h3.45V78.1a1,1,0,0,1-1,1h-1.45a1,1,0,0,1-1-1Z" fill="none" stroke="#45413c" stroke-linecap="round" stroke-linejoin="round"></path><path d="M91.95,75.652H88.5V78.1a1,1,0,0,0,1,1h1.45a1,1,0,0,0,1-1Z" fill="#b89558"></path><path d="M88.5 75.652H91.95V77.377H88.5z" fill="#947746"></path><path d="M91.95,75.652H88.5V78.1a1,1,0,0,0,1,1h1.45a1,1,0,0,0,1-1Z" fill="none" stroke="#45413c" stroke-linecap="round" stroke-linejoin="round"></path><path d="M31.575 71.051 L94.250 71.051 L94.250 75.651 L31.575 75.651 Z" fill="#b89558"></path><path d="M32.725,71.051a1.15,1.15,0,0,0-1.15,1.15v.575H94.25V72.2a1.15,1.15,0,0,0-1.15-1.15Z" fill="#debb7e"></path><path d="M31.575 71.051 L94.250 71.051 L94.250 75.651 L31.575 75.651 Z" fill="none" stroke="#45413c" stroke-linecap="round" stroke-linejoin="round"></path><path d="M89.65 71.051L85.05 66.451" fill="none" stroke="#45413c" stroke-linecap="round" stroke-linejoin="round"></path><path d="M88.212,56.389,73.55,71.051H33.875v-2.3a2.3,2.3,0,0,1,2.3-2.3H68.95L80.36,55.042a4.6,4.6,0,0,1,6.5,0Z" fill="#ff6242"></path><path d="M88.212,56.389l-.206.207a4.6,4.6,0,0,0-6.211.276L70.724,67.943a1.147,1.147,0,0,1-.813.337H36.175a2.307,2.307,0,0,0-2.3,2.3V68.751a2.307,2.307,0,0,1,2.3-2.3H68.95L80.358,55.043a4.6,4.6,0,0,1,6.509,0Z" fill="#ff866e"></path><path d="M88.212,56.389,73.55,71.051H33.875v-2.3a2.3,2.3,0,0,1,2.3-2.3H68.95L80.36,55.042a4.6,4.6,0,0,1,6.5,0Z" fill="none" stroke="#45413c" stroke-linecap="round" stroke-linejoin="round"></path><path d="M39.444,82.158a1.21,1.21,0,0,1-1.811-.113L26.4,67.6l1.725-1.725L39.544,80.559a1.21,1.21,0,0,1-.1,1.6Z" fill="#f0d5a8"></path><path d="M31.701 70.476L28.631 70.476 26.4 67.601 28.125 65.876 31.701 70.476z" fill="#debb7e"></path><path d="M39.444,82.158a1.21,1.21,0,0,1-1.811-.113L26.4,67.6l1.725-1.725L39.544,80.559a1.21,1.21,0,0,1-.1,1.6Z" fill="none" stroke="#45413c" stroke-linecap="round" stroke-linejoin="round"></path><path d="M27.156,82.158a1.21,1.21,0,0,0,1.811-.113L40.2,67.6l-1.725-1.725L27.056,80.559a1.21,1.21,0,0,0,.1,1.6Z" fill="#f0d5a8"></path><path d="M40.2 67.601L37.969 70.476 34.898 70.476 38.475 65.876 40.2 67.601z" fill="#debb7e"></path><path d="M27.156,82.158a1.21,1.21,0,0,0,1.811-.113L40.2,67.6l-1.725-1.725L27.056,80.559a1.21,1.21,0,0,0,.1,1.6Z" fill="none" stroke="#45413c" stroke-linecap="round" stroke-linejoin="round"></path><path d="M43.075,66.453a1.15,1.15,0,0,1-1.15,1.15H24.675a1.15,1.15,0,1,1,0-2.3h17.25A1.15,1.15,0,0,1,43.075,66.453Z" fill="#f0d5a8" stroke="#45413c" stroke-linecap="round" stroke-linejoin="round"></path><path d="M35.025,51.5a4.015,4.015,0,0,0-1.15,2.3c0,2.3,1.15,2.3,1.15,4.025S33.48,60.7,31.575,60.7s-3.45-1.15-3.45-2.875,1.15-1.725,1.15-4.025a4.015,4.015,0,0,0-1.15-2.3Z" fill="#00b8f0"></path><path d="M33.97,53.228H29.18a2.054,2.054,0,0,1,.095.575c0,2.3-1.15,2.3-1.15,4.025S29.67,60.7,31.575,60.7s3.45-1.15,3.45-2.875-1.15-1.725-1.15-4.025A2.054,2.054,0,0,1,33.97,53.228Z" fill="#6dd627"></path><path d="M28.952,55.528a4.593,4.593,0,0,0-.827,2.3c0,1.725,1.545,2.875,3.45,2.875s3.45-1.15,3.45-2.875a4.593,4.593,0,0,0-.827-2.3Z" fill="#ff8a14"></path><path d="M31.575,60.7c1.9,0,3.45-1.15,3.45-2.875h-6.9C28.125,59.553,29.67,60.7,31.575,60.7Z" fill="#ff6242"></path><path d="M28.7,65.3A2.636,2.636,0,0,1,31.575,63a2.636,2.636,0,0,1,2.875,2.3Z" fill="#00b8f0" stroke="#45413c" stroke-linecap="round" stroke-linejoin="round"></path><path d="M30.425 61.853 A1.150 1.150 0 1 0 32.725 61.853 A1.150 1.150 0 1 0 30.425 61.853 Z" fill="#00b8f0" stroke="#45413c" stroke-linecap="round" stroke-linejoin="round"></path><path d="M35.025,51.5a4.015,4.015,0,0,0-1.15,2.3c0,2.3,1.15,2.3,1.15,4.025S33.48,60.7,31.575,60.7s-3.45-1.15-3.45-2.875,1.15-1.725,1.15-4.025a4.015,4.015,0,0,0-1.15-2.3Z" fill="none" stroke="#45413c" stroke-linecap="round" stroke-linejoin="round"></path><path d="M34.45,47.478A1.725,1.725,0,0,0,32.725,49.2v2.3" fill="none" stroke="#45413c" stroke-linecap="round" stroke-linejoin="round"></path><path d="M26.5,53.129a2.3,2.3,0,0,1,3.252-3.253Z" fill="#ff8a14" stroke="#45413c" stroke-linecap="round" stroke-linejoin="round"></path></g></svg>