<svg viewBox="0 0 128 128" height="128" width="128" xmlns="http://www.w3.org/2000/svg"><g transform="matrix(1.28,0,0,1.28,0,0)"><path d="M90,50A40,40,0,1,0,13.564,66.5H86.436A39.844,39.844,0,0,0,90,50Z" fill="#c7f0ff"></path><path d="M13.564,66.5a40,40,0,0,0,72.872,0Z" fill="#ccf7ad"></path><path d="M11 66.5L89 66.5" fill="none" stroke="#45413c" stroke-linecap="round" stroke-linejoin="round"></path><path d="M6.5 66.5L9 66.5" fill="none" stroke="#45413c" stroke-linecap="round" stroke-linejoin="round"></path><path d="M91 66.5L93.5 66.5" fill="none" stroke="#45413c" stroke-linecap="round" stroke-linejoin="round"></path><path d="M76.625 66.099L50 66.099 23.375 66.099 20.046 82.074 50 82.074 79.954 82.074 76.625 66.099z" fill="#ffffff" stroke="#45413c" stroke-linecap="round" stroke-linejoin="round"></path><path d="M76.625 66.099L78.622 66.099" fill="none" stroke="#45413c" stroke-linecap="round" stroke-linejoin="round"></path><path d="M77.18 68.761L79.288 68.761" fill="none" stroke="#45413c" stroke-linecap="round" stroke-linejoin="round"></path><path d="M77.735 71.424L79.954 71.424" fill="none" stroke="#45413c" stroke-linecap="round" stroke-linejoin="round"></path><path d="M78.289 74.086L80.619 74.086" fill="none" stroke="#45413c" stroke-linecap="round" stroke-linejoin="round"></path><path d="M78.844 76.749L81.285 76.749" fill="none" stroke="#45413c" stroke-linecap="round" stroke-linejoin="round"></path><path d="M79.399 79.411L81.95 79.411" fill="none" stroke="#45413c" stroke-linecap="round" stroke-linejoin="round"></path><path d="M79.954 82.074L82.616 82.074" fill="none" stroke="#45413c" stroke-linecap="round" stroke-linejoin="round"></path><path d="M23.375 66.099L21.378 66.099" fill="none" stroke="#45413c" stroke-linecap="round" stroke-linejoin="round"></path><path d="M22.82 68.761L20.712 68.761" fill="none" stroke="#45413c" stroke-linecap="round" stroke-linejoin="round"></path><path d="M22.265 71.424L20.046 71.424" fill="none" stroke="#45413c" stroke-linecap="round" stroke-linejoin="round"></path><path d="M21.711 74.086L19.381 74.086" fill="none" stroke="#45413c" stroke-linecap="round" stroke-linejoin="round"></path><path d="M21.156 76.749L18.715 76.749" fill="none" stroke="#45413c" stroke-linecap="round" stroke-linejoin="round"></path><path d="M20.601 79.411L18.05 79.411" fill="none" stroke="#45413c" stroke-linecap="round" stroke-linejoin="round"></path><path d="M20.046 82.074L17.384 82.074" fill="none" stroke="#45413c" stroke-linecap="round" stroke-linejoin="round"></path><path d="M63.929,56.781a13.929,13.929,0,1,0-27.858,0v0h5.417V69.162H58.512V56.781Z" fill="#00b8f0" stroke="#45413c" stroke-linecap="round" stroke-linejoin="round"></path><path d="M50,59.331l5.478-15.359a13.843,13.843,0,0,0-10.956,0Z" fill="#ffffff" stroke="#45413c" stroke-linecap="round" stroke-linejoin="round"></path><path d="M53.838 48.569L50 45.988 46.162 48.569" fill="none" stroke="#45413c" stroke-linecap="round" stroke-linejoin="round"></path><path d="M52.871 43.143L49.981 45.997 47.123 43.143 47.129 39.706 52.877 39.706 52.871 43.143z" fill="#ffda8f" stroke="#45413c" stroke-linecap="round" stroke-linejoin="round"></path><path d="M41.454,56.785a4.636,4.636,0,0,0-.819-2.125,4.647,4.647,0,0,1-.7-2.537" fill="none" stroke="#45413c" stroke-linecap="round" stroke-linejoin="round"></path><path d="M57.943 45.339L57.943 51.257 55.478 51.086 56.4 53.921 50 59.331 50 69.162" fill="none" stroke="#45413c" stroke-linecap="round" stroke-linejoin="round"></path><path d="M42.057 45.339L42.057 51.257 44.522 51.086 43.6 53.921 50 59.331" fill="none" stroke="#45413c" stroke-linecap="round" stroke-linejoin="round"></path><path d="M58.519,56.782a4.625,4.625,0,0,1,.819-2.122,4.647,4.647,0,0,0,.7-2.537" fill="none" stroke="#45413c" stroke-linecap="round" stroke-linejoin="round"></path><path d="M63.929,56.781v1.7A2.042,2.042,0,0,0,68,58.753l.752-5.689a2.708,2.708,0,1,1,5.37.71l-.751,5.688a7.459,7.459,0,0,1-14.854-.977v-1.7Z" fill="#ffda8f" stroke="#45413c" stroke-linecap="round" stroke-linejoin="round"></path><path d="M36.071,56.781v1.7a2.042,2.042,0,0,1-4.066.268l-.752-5.689a2.708,2.708,0,0,0-5.37.71l.751,5.688a7.459,7.459,0,0,0,14.854-.977v-1.7Z" fill="#ffda8f" stroke="#45413c" stroke-linecap="round" stroke-linejoin="round"></path><path d="M29.365 76.749 A20.635 1.997 0 1 0 70.635 76.749 A20.635 1.997 0 1 0 29.365 76.749 Z" fill="#45413c" opacity=".15"></path><path d="M64.71 68.235L58.653 67.442 41.347 67.442 35.29 68.235 35.29 73.612 64.71 73.612 64.71 68.235" fill="#00b8f0" stroke="#45413c" stroke-linecap="round" stroke-linejoin="round"></path><path d="M35.29,68.235a3.994,3.994,0,0,0-.669,7.96l12.612.428L48.9,69.951Z" fill="#ffda8f"></path><path d="M34.924,70.631l13.384,1.688.592-2.368L35.29,68.235a3.957,3.957,0,0,0-4.27,4.6A3.991,3.991,0,0,1,34.924,70.631Z" fill="#ffe9bd"></path><path d="M35.29,68.235a3.994,3.994,0,0,0-.669,7.96l12.612.428L48.9,69.951Z" fill="none" stroke="#45413c" stroke-linecap="round" stroke-linejoin="round"></path><path d="M48.977,70.252l2.387-.3,1.668,6.672-3.374.114a3.258,3.258,0,0,1-3.52-2.974v-.005A3.258,3.258,0,0,1,48.977,70.252Z" fill="#bf8256" stroke="#45413c" stroke-linecap="round" stroke-linejoin="round"></path><path d="M64.975,68.235a3.994,3.994,0,0,1,.669,7.96l-12.612.428-1.668-6.672Z" fill="#ffda8f"></path><path d="M64.975,71.016a3.982,3.982,0,0,1,4.063,2.6,3.945,3.945,0,0,0,.251-1.732,3.993,3.993,0,0,0-4.314-3.645L51.364,69.951l.674,2.7Z" fill="#ffe9bd"></path><path d="M64.975,68.235a3.994,3.994,0,0,1,.669,7.96l-12.612.428-1.668-6.672Z" fill="none" stroke="#45413c" stroke-linecap="round" stroke-linejoin="round"></path><path d="M36.023,33.563a13.98,13.98,0,1,1-13.98-13.98A13.98,13.98,0,0,1,36.023,33.563Z" fill="#ffe500"></path><path d="M22.043,44.921A13.976,13.976,0,0,1,8.13,32.252c-.041.432-.066.868-.066,1.311a13.98,13.98,0,0,0,27.959,0c0-.443-.026-.879-.066-1.311A13.977,13.977,0,0,1,22.043,44.921Z" fill="#ebcb00"></path><path d="M22.043,23.952A13.971,13.971,0,0,1,35.836,35.747a13.98,13.98,0,1,0-27.585,0A13.97,13.97,0,0,1,22.043,23.952Z" fill="#ffffff48c"></path><path d="M36.023,33.563a13.98,13.98,0,1,1-13.98-13.98A13.98,13.98,0,0,1,36.023,33.563Z" fill="none" stroke="#45413c" stroke-linejoin="round"></path><path d="M25.539,30.067a3.5,3.5,0,0,0-3.5-3.494h-.255a3.24,3.24,0,0,0-1.449,6.138l3.408,1.7A3.239,3.239,0,0,1,22.3,40.552h-.255a3.494,3.494,0,0,1-3.5-3.494" fill="none" stroke="#45413c" stroke-linecap="round"></path><path d="M22.043 26.573L22.043 24.825" fill="none" stroke="#45413c" stroke-linecap="round"></path><path d="M22.043 42.3L22.043 40.552" fill="none" stroke="#45413c" stroke-linecap="round"></path><path d="M63.977 33.562 A13.980 13.980 0 1 0 91.937 33.562 A13.980 13.980 0 1 0 63.977 33.562 Z" fill="#ff6242" stroke="#45413c" stroke-linejoin="round"></path><path d="M67.472 33.562 A10.485 10.485 0 1 0 88.442 33.562 A10.485 10.485 0 1 0 67.472 33.562 Z" fill="#ffffff" transform="translate(-5.849 46.99) rotate(-32.396)"></path><path d="M77.957,26.573A10.478,10.478,0,0,1,88.284,35.31a10.485,10.485,0,1,0-20.655,0A10.478,10.478,0,0,1,77.957,26.573Z" fill="#f0f0f0"></path><path d="M67.472 33.562 A10.485 10.485 0 1 0 88.442 33.562 A10.485 10.485 0 1 0 67.472 33.562 Z" fill="none" stroke="#45413c" stroke-linejoin="round" transform="translate(-5.849 46.99) rotate(-32.396)"></path><path d="M77.957 25.874L77.957 33.562 82.151 33.562" fill="none" stroke="#45413c" stroke-linecap="round" stroke-linejoin="round"></path><path d="M83.888 27.631L82.899 28.62" fill="none" stroke="#45413c" stroke-linecap="round" stroke-linejoin="round"></path><path d="M86.344 33.562L84.946 33.562" fill="none" stroke="#45413c" stroke-linecap="round" stroke-linejoin="round"></path><path d="M83.888 39.493L82.899 38.505" fill="none" stroke="#45413c" stroke-linecap="round" stroke-linejoin="round"></path><path d="M77.957 41.95L77.957 40.552" fill="none" stroke="#45413c" stroke-linecap="round" stroke-linejoin="round"></path><path d="M72.026 39.493L73.014 38.505" fill="none" stroke="#45413c" stroke-linecap="round" stroke-linejoin="round"></path><path d="M69.569 33.562L70.967 33.562" fill="none" stroke="#45413c" stroke-linecap="round" stroke-linejoin="round"></path><path d="M72.026 27.631L73.014 28.62" fill="none" stroke="#45413c" stroke-linecap="round" stroke-linejoin="round"></path><path d="M90.821,47.542a.667.667,0,0,1,.568,1.024,5.3,5.3,0,0,1-4.37,2.3H68.894a5.293,5.293,0,0,1-4.369-2.3.667.667,0,0,1,.567-1.024Z" fill="#ebcb00" stroke="#45413c" stroke-linecap="round" stroke-linejoin="round"></path><path d="M9.179,47.542a.667.667,0,0,0-.568,1.024,5.3,5.3,0,0,0,4.37,2.3H31.106a5.293,5.293,0,0,0,4.369-2.3.667.667,0,0,0-.567-1.024Z" fill="#ebcb00" stroke="#45413c" stroke-linecap="round" stroke-linejoin="round"></path><path d="M59.423,33.065a1.659,1.659,0,0,0-1.346-1.615V30.373a8.077,8.077,0,1,0-16.154,0V31.45a1.649,1.649,0,0,0,.17,3.264,8.077,8.077,0,0,0,15.814,0A1.666,1.666,0,0,0,59.423,33.065Z" fill="#ffda8f" stroke="#45413c" stroke-linecap="round" stroke-linejoin="round"></path><path d="M44.615 34.075 A1.010 1.010 0 1 0 46.635 34.075 A1.010 1.010 0 1 0 44.615 34.075 Z" fill="#ffbe3d"></path><path d="M53.365 34.075 A1.010 1.010 0 1 0 55.385 34.075 A1.010 1.010 0 1 0 53.365 34.075 Z" fill="#ffbe3d"></path><path d="M47.981,36.492a3.64,3.64,0,0,0,4.038,0" fill="none" stroke="#45413c" stroke-linecap="round" stroke-linejoin="round"></path><path d="M52.619,23.859a1.125,1.125,0,0,1,1.561-.4,8.072,8.072,0,0,1,3.9,6.912V31.45l-.169,3.264A8.1,8.1,0,0,1,52.7,40.679a7.713,7.713,0,0,0,6.78.2c3.7-1.818,4.427-8.268,1.959-13.877-1.406-3.2-3.492-6.773-7.5-6.7-4.055-3.9-11.193-1.222-14.939,5.3-3.364,5.862-2.688,12.568,1.51,14.978a7.615,7.615,0,0,0,6.818.1,8.089,8.089,0,0,1-5.232-5.974c-.07-1.332-.181-2.938-.174-4.156a.884.884,0,0,1,.911-.859A11.218,11.218,0,0,0,52.619,23.859Z" fill="#614b44"></path><path d="M38.34,28.374c3.641-6.344,10.305-9.259,14.7-6.514a7.515,7.515,0,0,0,2.522,1.009c3.37.666,5.255,3.985,6.576,6.985.2.465.388.936.551,1.408a17.257,17.257,0,0,0-1.251-4.255c-1.406-3.2-3.492-6.773-7.5-6.7-4.054-3.9-11.192-1.222-14.938,5.3a16.118,16.118,0,0,0-2,5.664A17.872,17.872,0,0,1,38.34,28.374Z" fill="#947063"></path><path d="M52.619,23.859a1.125,1.125,0,0,1,1.561-.4,8.072,8.072,0,0,1,3.9,6.912V31.45l-.169,3.264A8.1,8.1,0,0,1,52.7,40.679a7.713,7.713,0,0,0,6.78.2c3.7-1.818,4.427-8.268,1.959-13.877-1.406-3.2-3.492-6.773-7.5-6.7-4.055-3.9-11.193-1.222-14.939,5.3-3.364,5.862-2.688,12.568,1.51,14.978a7.615,7.615,0,0,0,6.818.1,8.089,8.089,0,0,1-5.232-5.974c-.07-1.332-.181-2.938-.174-4.156a.884.884,0,0,1,.911-.859A11.218,11.218,0,0,0,52.619,23.859Z" fill="none" stroke="#45413c" stroke-linecap="round" stroke-linejoin="round"></path><path d="M53.639,31.719a1.144,1.144,0,0,0-1.62,0" fill="none" stroke="#45413c" stroke-linecap="round" stroke-linejoin="round"></path><path d="M47.981,31.719a1.144,1.144,0,0,0-1.62,0" fill="none" stroke="#45413c" stroke-linecap="round" stroke-linejoin="round"></path></g></svg>